<?xml version="1.0" encoding="utf-8"?>
<!-- Generator: Adobe Illustrator 16.0.0, SVG Export Plug-In . SVG Version: 6.00 Build 0)  -->
<!DOCTYPE svg PUBLIC "-//W3C//DTD SVG 1.1//EN" "http://www.w3.org/Graphics/SVG/1.1/DTD/svg11.dtd">
<svg version="1.1" id="Capa_1" xmlns="http://www.w3.org/2000/svg" xmlns:xlink="http://www.w3.org/1999/xlink" x="0px" y="0px"
	 width="194.842px" height="194.002px" viewBox="0 0 194.842 194.002" enable-background="new 0 0 194.842 194.002"
	 xml:space="preserve">
<path fill="none" stroke="#B2B2B2" stroke-miterlimit="10" d="M358,62.572v52.43h-36v-4.68c7.42-4.83,14.05-11,19.91-18.45
	c3.1-3.95,5.83-8.07,8.25-12.32c0,0,0,0,0-0.01C353.25,74.103,355.83,68.422,358,62.572z"/>
<path fill="none" stroke="#B2B2B2" stroke-miterlimit="10" d="M113.85-109.998c-7.08,6.65-12.689,13.89-16.85,21.69v-21.69H113.85z"
	/>
<path fill-rule="evenodd" clip-rule="evenodd" d="M-220.468-117.439c1.084-6.21,2.208-12.414,3.247-18.631
	c4.951-29.625,14.473-57.779,27.475-84.779c4.257-8.84,8.99-17.454,13.593-26.125c1.068-2.012,2.49-3.836,4.216-6.457
	c7.79,7.568,15.585,14.325,22.406,21.952c11.528,12.891,23.034,25.883,33.457,39.659c12.779,16.89,23.624,35.15,30.302,55.398
	c4.352,13.194,8.746,26.61,10.744,40.275c1.735,11.87,0.997,24.312-0.172,36.353c-2.574,26.52-12.037,50.809-27.203,72.642
	c-6.618,9.527-14.56,18.137-21.927,27.141c-2.403,2.937-4.323,2.793-6.503-0.579c-10.824-16.741-16.197-35.312-18.619-54.856
	c-2.631-21.236-0.354-42.197,4.022-63.006c0.366-1.739,0.68-3.489,0.399-5.371c-5.872,13.368-8.959,27.426-10.125,41.911
	c-1.196,14.868-0.939,29.836,3.514,44.084c4.326,13.84,10.31,27.162,15.612,40.831c-2.264-1.333-5.067-2.857-7.743-4.578
	c-31.604-20.325-55.682-46.911-67.797-83.04c-3.105-9.261-4.657-19.044-6.893-28.595c-0.717-3.064-1.338-6.152-2.003-9.229
	C-220.468-94.106-220.468-105.773-220.468-117.439z"/>
<path fill-rule="evenodd" clip-rule="evenodd" d="M260.786-0.283c-0.53-2.523-0.953-3.818-1.06-5.141
	c-2.658-32.927,1.688-64.766,17.937-93.819c7.234-12.936,17.029-24.541,26.45-36.108c4.313-5.297,10.396-9.217,15.901-13.471
	c44.429-34.337,96.204-48.67,150.828-55.104c10.065-1.186,10.352-0.908,8.56,9.102c-3.165,17.675-5.514,35.611-10.288,52.861
	c-10.131,36.603-25.339,70.903-51.871,99.028C390.164-14.23,356.674,1.577,317.597,5.923c-15.657,1.744-31.261,1.369-46.806-1.09"/>
<g>
	<path fill="#FBEA23" d="M90,45.002v36H36v36H0v-60c0-6.63,5.37-12,12-12H90z"/>
	<path fill="#E20B81" d="M90,158.002v36H12c-6.63,0-12-5.37-12-12v-60h36v18h27v18H90z"/>
	<path fill="#299FDA" d="M185,122.002v60c0,6.63-5.37,12-12,12H95v-36h27v-18h27v-18H185z"/>
	<line fill="none" stroke="#B2B2B2" stroke-miterlimit="10" x1="34" y1="115.002" x2="34" y2="124.002"/>
	<path fill="none" stroke="#B2B2B2" stroke-miterlimit="10" d="M102.02,124.002H97v-0.25
		C98.68,123.932,100.35,124.002,102.02,124.002z"/>
	<path fill="none" stroke="#B2B2B2" stroke-miterlimit="10" d="M105.67,124.002h-3.65c1.211,0,2.41-0.04,3.61-0.11
		C105.64,123.932,105.66,123.972,105.67,124.002z"/>
	<path fill="none" stroke="#E30613" stroke-miterlimit="10" d="M102.02,124.002H97v-0.25
		C98.68,123.932,100.35,124.002,102.02,124.002z"/>
	<path fill="none" stroke="#E30613" stroke-miterlimit="10" d="M105.67,124.002h-3.65c1.211,0,2.41-0.04,3.61-0.11
		C105.64,123.932,105.66,123.972,105.67,124.002z"/>
	<path fill-rule="evenodd" clip-rule="evenodd" fill="#0A9438" d="M194.67,14.712c-0.99,9.27-2.189,18.53-3.3,27.79
		c-1.68,7.56-3.73,14.95-6.37,22.07c-2.17,5.85-4.75,11.53-7.84,16.97c0,0.01,0,0.01,0,0.01c-2.42,4.25-5.15,8.37-8.25,12.32
		c-5.86,7.45-12.49,13.62-19.91,18.45v-31.32H95v-14.31c4.16-7.8,9.77-15.04,16.85-21.69c1.99-1.88,4.11-3.71,6.341-5.5
		c0.609-0.48,1.22-0.96,1.829-1.43c14.37-11.07,30.461-18.37,47.5-23.35c7.11-2.08,14.381-3.76,21.761-5.14
		C194.58,8.592,195.25,9.292,194.67,14.712z"/>
	<path fill-rule="evenodd" clip-rule="evenodd" fill="#69B866" d="M167.52,14.723c-17.039,4.98-33.13,12.28-47.5,23.35
		c10.131-13.71,22.7-25.4,36.53-35.94c4.29-3.27,5.2-2.95,7.12,2.15C164.98,7.752,166.25,11.232,167.52,14.723z"/>
	
		<polygon fill-rule="evenodd" clip-rule="evenodd" fill="#FFFFFF" stroke="#3C3C3B" stroke-width="4" stroke-miterlimit="10" points="
		151,79.002 151,142.002 124,142.002 124,124.002 61,124.002 61,142.002 34,142.002 34,79.002 	"/>
	<path fill-rule="evenodd" clip-rule="evenodd" fill="none" stroke="#E30613" stroke-miterlimit="10" d="M105.67,124.002h-3.65
		c1.211,0,2.41-0.04,3.61-0.11C105.64,123.932,105.66,123.972,105.67,124.002z"/>
	
		<rect x="61" y="124.002" fill-rule="evenodd" clip-rule="evenodd" fill="#FFFFFF" stroke="#3C3C3B" stroke-width="4" stroke-miterlimit="10" width="63" height="36"/>
	<line fill="none" stroke="#3C3C3B" stroke-width="4" stroke-miterlimit="10" x1="79" y1="151.002" x2="106" y2="151.002"/>
</g>
</svg>
