<?xml version="1.0" encoding="utf-8"?>
<!-- Generator: Adobe Illustrator 16.0.0, SVG Export Plug-In . SVG Version: 6.00 Build 0)  -->
<!DOCTYPE svg PUBLIC "-//W3C//DTD SVG 1.1//EN" "http://www.w3.org/Graphics/SVG/1.1/DTD/svg11.dtd">
<svg version="1.1" id="Capa_1" xmlns="http://www.w3.org/2000/svg" xmlns:xlink="http://www.w3.org/1999/xlink" x="0px" y="0px"
	 width="327px" height="276px" viewBox="0 0 327 276" enable-background="new 0 0 327 276" xml:space="preserve">
<path fill="none" stroke="#B2B2B2" stroke-miterlimit="10" d="M1096,71.57V124h-36v-4.68c7.42-4.83,14.05-11,19.91-18.45
	c3.1-3.95,5.83-8.07,8.25-12.32c0,0,0,0,0-0.01C1091.25,83.1,1093.83,77.42,1096,71.57z"/>
<path fill="none" stroke="#B2B2B2" stroke-miterlimit="10" d="M851.85-101c-7.08,6.65-12.689,13.89-16.85,21.69V-101H851.85z"/>
<linearGradient id="SVGID_1_" gradientUnits="userSpaceOnUse" x1="782.9995" y1="54" x2="782.9995" y2="126.0005">
	<stop  offset="0" style="stop-color:#FFED00"/>
	<stop  offset="0.0854" style="stop-color:#FFDF00"/>
	<stop  offset="0.187" style="stop-color:#FFD300"/>
	<stop  offset="0.2916" style="stop-color:#FECB00"/>
	<stop  offset="0.4031" style="stop-color:#FDC800"/>
	<stop  offset="0.6082" style="stop-color:#F7AE00"/>
	<stop  offset="0.8655" style="stop-color:#F18F00"/>
	<stop  offset="1" style="stop-color:#EF8300"/>
</linearGradient>
<path fill="url(#SVGID_1_)" d="M828,54v36h-54v36h-36V66c0-6.63,5.37-12,12-12H828z"/>
<linearGradient id="SVGID_2_" gradientUnits="userSpaceOnUse" x1="738" y1="167" x2="828" y2="167">
	<stop  offset="0" style="stop-color:#FFEF26"/>
	<stop  offset="0" style="stop-color:#FFE832"/>
	<stop  offset="0" style="stop-color:#FCC455"/>
	<stop  offset="0" style="stop-color:#F59F61"/>
	<stop  offset="0" style="stop-color:#EF7C65"/>
	<stop  offset="0" style="stop-color:#EB5C63"/>
	<stop  offset="0" style="stop-color:#E83D5F"/>
	<stop  offset="0" style="stop-color:#E7255D"/>
	<stop  offset="0" style="stop-color:#E6075B"/>
	<stop  offset="0" style="stop-color:#E5005B"/>
	<stop  offset="0.039" style="stop-color:#E6005F"/>
	<stop  offset="0.1096" style="stop-color:#E5006B"/>
	<stop  offset="0.2032" style="stop-color:#E6007C"/>
	<stop  offset="0.2147" style="stop-color:#E6007E"/>
	<stop  offset="0.5183" style="stop-color:#E6007E"/>
	<stop  offset="0.5888" style="stop-color:#D5007F"/>
	<stop  offset="0.739" style="stop-color:#B21180"/>
	<stop  offset="0.8509" style="stop-color:#9B1A81"/>
	<stop  offset="0.911" style="stop-color:#921C81"/>
</linearGradient>
<path fill="url(#SVGID_2_)" d="M828,167v36h-78c-6.63,0-12-5.37-12-12v-60h36v18h27v18H828z"/>
<linearGradient id="SVGID_3_" gradientUnits="userSpaceOnUse" x1="833" y1="167" x2="923" y2="167">
	<stop  offset="0" style="stop-color:#FFEF26"/>
	<stop  offset="0" style="stop-color:#FFDF4B"/>
	<stop  offset="0" style="stop-color:#FBC170"/>
	<stop  offset="0" style="stop-color:#F5A280"/>
	<stop  offset="0" style="stop-color:#F08685"/>
	<stop  offset="0" style="stop-color:#ED6D85"/>
	<stop  offset="0" style="stop-color:#EB5983"/>
	<stop  offset="0" style="stop-color:#EA4C81"/>
	<stop  offset="0" style="stop-color:#E94881"/>
	<stop  offset="0" style="stop-color:#EA4C81"/>
	<stop  offset="0" style="stop-color:#DB4E84"/>
	<stop  offset="0" style="stop-color:#B4508D"/>
	<stop  offset="0" style="stop-color:#674F98"/>
	<stop  offset="0" style="stop-color:#354D9C"/>
	<stop  offset="0.0986" style="stop-color:#2457A4"/>
	<stop  offset="0.3004" style="stop-color:#0071BA"/>
	<stop  offset="0.5851" style="stop-color:#0093D8"/>
	<stop  offset="0.7016" style="stop-color:#009FE3"/>
</linearGradient>
<path fill="url(#SVGID_3_)" d="M923,131v60c0,6.63-5.37,12-12,12h-78v-36h27v-18h27v-18H923z"/>
<line fill="none" stroke="#B2B2B2" stroke-miterlimit="10" x1="772" y1="124" x2="772" y2="133"/>
<path fill="none" stroke="#B2B2B2" stroke-miterlimit="10" d="M840.02,133H835v-0.25C836.68,132.93,838.35,133,840.02,133z"/>
<path fill="none" stroke="#B2B2B2" stroke-miterlimit="10" d="M843.67,133h-3.65c1.211,0,2.41-0.04,3.61-0.11
	C843.64,132.93,843.66,132.97,843.67,133z"/>
<path fill="none" stroke="#E30613" stroke-miterlimit="10" d="M840.02,133H835v-0.25C836.68,132.93,838.35,133,840.02,133z"/>
<path fill="none" stroke="#E30613" stroke-miterlimit="10" d="M843.67,133h-3.65c1.211,0,2.41-0.04,3.61-0.11
	C843.64,132.93,843.66,132.97,843.67,133z"/>
<path fill-rule="evenodd" clip-rule="evenodd" fill="#0A9438" d="M932.67,23.71c-0.99,9.27-2.189,18.53-3.3,27.79
	c-1.68,7.56-3.73,14.95-6.37,22.07c-2.17,5.85-4.75,11.53-7.84,16.97c0,0.01,0,0.01,0,0.01c-2.42,4.25-5.15,8.37-8.25,12.32
	c-5.86,7.45-12.49,13.62-19.91,18.45V90h-54V75.69c4.16-7.8,9.77-15.04,16.85-21.69c1.99-1.88,4.11-3.71,6.341-5.5
	c0.609-0.48,1.22-0.96,1.829-1.43C872.39,36,888.48,28.7,905.52,23.72c7.11-2.08,14.381-3.76,21.761-5.14
	C932.58,17.59,933.25,18.29,932.67,23.71z"/>
<path fill-rule="evenodd" clip-rule="evenodd" fill="#69B866" d="M905.52,23.72C888.48,28.7,872.39,36,858.02,47.07
	c10.131-13.71,22.7-25.4,36.53-35.94c4.29-3.27,5.2-2.95,7.12,2.15C902.98,16.75,904.25,20.23,905.52,23.72z"/>
<polygon fill-rule="evenodd" clip-rule="evenodd" fill="#FFFFFF" stroke="#262626" stroke-width="4" stroke-miterlimit="10" points="
	889,88 889,151 862,151 862,133 799,133 799,151 772,151 772,88 "/>
<path fill-rule="evenodd" clip-rule="evenodd" fill="none" stroke="#E30613" stroke-miterlimit="10" d="M843.67,133h-3.65
	c1.211,0,2.41-0.04,3.61-0.11C843.64,132.93,843.66,132.97,843.67,133z"/>
<rect x="799" y="133" fill-rule="evenodd" clip-rule="evenodd" fill="#FFFFFF" stroke="#262626" stroke-width="4" stroke-miterlimit="10" width="63" height="36"/>
<line fill="none" stroke="#3C3C3B" stroke-width="4" stroke-miterlimit="10" x1="817" y1="160" x2="844" y2="160"/>
<g opacity="0.5">
	<g>
		<path fill="#FFED00" d="M718.228,213.977c1.481,0,2.615,0.168,3.4,0.505c0.785,0.337,1.335,0.618,1.65,0.842l0.067,0.067
			c1.616,0.988,3.03,2.503,4.242,4.545c1.212,2.043,1.818,4.366,1.818,6.97c0,0.987-0.034,1.964-0.101,2.929
			c-0.067,0.966-0.235,1.909-0.505,2.828c-0.27,0.921-0.663,1.818-1.178,2.693c-0.517,0.876-1.224,1.695-2.121,2.458
			c1.167,0.808,2.098,1.64,2.794,2.491c0.695,0.854,1.222,1.729,1.582,2.626c0.359,0.898,0.595,1.83,0.707,2.795
			c0.112,0.966,0.168,1.986,0.168,3.063c0.044,1.393-0.079,2.672-0.37,3.839c-0.292,1.167-0.64,2.188-1.044,3.063
			c-0.404,0.875-0.808,1.582-1.212,2.121c-0.404,0.538-0.697,0.875-0.875,1.01c-0.808,0.764-1.818,1.448-3.03,2.054
			c-1.212,0.606-2.761,0.909-4.646,0.909H707.05V216.67c1.75-0.673,3.299-1.2,4.646-1.582c1.347-0.381,2.29-0.617,2.828-0.707
			C715.736,214.111,716.97,213.977,718.228,213.977z M724.422,227.175c-0.09-1.078-0.281-2.121-0.572-3.132
			c-0.292-1.01-0.719-1.907-1.279-2.693c-0.562-0.785-1.246-1.414-2.054-1.885c-0.808-0.472-1.751-0.707-2.828-0.707
			c-0.449,0-1.134,0.067-2.054,0.201c-0.921,0.135-2.234,0.563-3.939,1.28v15.218h6.33c1.256,0,2.29-0.225,3.098-0.674
			c0.808-0.448,1.458-1.044,1.953-1.784c0.494-0.741,0.842-1.616,1.044-2.626C724.321,229.363,724.422,228.297,724.422,227.175z
			 M711.696,240.17v16.834h7.878c1.212,0,2.232-0.212,3.064-0.64c0.83-0.426,1.492-1.01,1.986-1.75
			c0.493-0.741,0.842-1.616,1.043-2.627c0.202-1.01,0.303-2.075,0.303-3.198c0-1.167-0.101-2.277-0.303-3.333
			c-0.202-1.054-0.55-1.975-1.043-2.761c-0.495-0.785-1.156-1.402-1.986-1.852c-0.832-0.448-1.852-0.674-3.064-0.674H711.696z"/>
		<path fill="#FFED00" d="M739.169,214.649h4.377v47.136h-4.377V214.649z"/>
		<path fill="#FFED00" d="M779.301,250.001c0,0.988-0.191,2.188-0.572,3.603c-0.382,1.414-1.077,2.772-2.087,4.074
			c-1.01,1.303-2.368,2.413-4.074,3.333c-1.707,0.92-3.861,1.381-6.464,1.381c-2.559,0-4.669-0.461-6.33-1.381
			c-1.661-0.92-2.997-2.03-4.006-3.333c-1.01-1.302-1.717-2.66-2.121-4.074c-0.404-1.414-0.606-2.614-0.606-3.603v-23.163
			c0-0.987,0.19-2.211,0.572-3.67c0.381-1.458,1.066-2.862,2.054-4.209c0.987-1.347,2.333-2.502,4.04-3.468
			c1.706-0.965,3.86-1.447,6.464-1.447c2.559,0,4.68,0.472,6.363,1.414s3.03,2.087,4.04,3.434c1.01,1.348,1.717,2.751,2.121,4.209
			c0.404,1.459,0.606,2.683,0.606,3.67V250.001z M774.79,226.771c0-1.66-0.314-2.997-0.943-4.007
			c-0.629-1.01-1.403-1.795-2.323-2.356c-0.921-0.561-1.875-0.932-2.862-1.111c-0.988-0.179-1.818-0.27-2.492-0.27
			s-1.504,0.102-2.491,0.304c-0.988,0.202-1.931,0.584-2.828,1.145c-0.898,0.562-1.673,1.347-2.323,2.356
			c-0.651,1.01-0.977,2.347-0.977,4.007v23.163c0,1.707,0.325,3.042,0.977,4.007c0.65,0.966,1.425,1.707,2.323,2.222
			c0.897,0.517,1.84,0.842,2.828,0.977c0.987,0.135,1.818,0.202,2.491,0.202s1.503-0.078,2.492-0.235
			c0.987-0.157,1.941-0.494,2.862-1.011c0.919-0.515,1.694-1.256,2.323-2.222c0.628-0.965,0.943-2.277,0.943-3.939V226.771z"/>
		<path fill="#E6007E" d="M788.323,216.737c2.828-1.167,5.162-1.919,7.003-2.256c1.84-0.337,3.075-0.505,3.704-0.505
			c1.795,0,3.445,0.37,4.949,1.111c1.503,0.74,2.816,1.75,3.939,3.03c1.122,1.279,1.997,2.75,2.626,4.41
			c0.628,1.661,0.942,3.434,0.942,5.319v21.278c0,1.886-0.359,3.647-1.077,5.286c-0.719,1.639-1.684,3.053-2.896,4.242
			s-2.616,2.121-4.208,2.794c-1.594,0.674-3.266,1.011-5.017,1.011c-0.36,0-0.786-0.023-1.279-0.067
			c-0.495-0.046-1.134-0.146-1.919-0.304c-0.786-0.157-1.729-0.403-2.828-0.74c-1.101-0.337-2.414-0.818-3.939-1.448V216.737z
			 M806.571,227.848c0-1.886-0.427-3.535-1.279-4.949c-0.853-1.414-1.774-2.458-2.761-3.131c-0.495-0.359-1.077-0.617-1.75-0.774
			s-1.257-0.235-1.751-0.235c-0.942,0-1.964,0.191-3.063,0.572c-1.101,0.382-2.121,0.774-3.064,1.178v35.756
			c1.571,0.629,2.794,1.01,3.67,1.145c0.875,0.135,1.537,0.202,1.986,0.202h0.269c1.032,0,2.021-0.246,2.963-0.741
			c0.943-0.493,1.785-1.166,2.525-2.02c0.741-0.853,1.323-1.818,1.75-2.896c0.426-1.077,0.64-2.222,0.64-3.435L806.571,227.848z"/>
		<path fill="#E6007E" d="M840.439,214.649v4.714h-14.881v16.363h11.65v4.713h-11.65v16.497h15.016v4.781h-19.662v-47.068H840.439z"
			/>
		<path fill="#009FE3" d="M852.358,249.665c0,1.167,0.224,2.245,0.673,3.231c0.448,0.988,1.044,1.863,1.784,2.626
			c0.741,0.765,1.594,1.358,2.56,1.785c0.965,0.427,1.986,0.64,3.063,0.64c0.448,0,1.044-0.078,1.784-0.236
			c0.741-0.156,1.852-0.616,3.333-1.38v-12.727h4.646v15.622c-2.649,1.438-4.814,2.335-6.498,2.693s-2.84,0.539-3.468,0.539
			c-1.841,0-3.524-0.371-5.05-1.111c-1.527-0.741-2.852-1.728-3.974-2.963c-1.122-1.234-1.986-2.682-2.592-4.343
			c-0.606-1.661-0.909-3.435-0.909-5.32v-21.009c0.179-4.264,1.402-7.619,3.67-10.066c2.267-2.446,5.263-3.67,8.989-3.67
			c0.673,0.045,1.458,0.158,2.356,0.337c0.897,0.18,1.706,0.403,2.425,0.673l4.578,1.751l-1.616,4.714l-5.117-1.953
			c-1.033-0.448-1.908-0.673-2.626-0.673c-1.077,0-2.11,0.247-3.098,0.74c-0.988,0.494-1.841,1.145-2.559,1.953
			c-0.719,0.808-1.291,1.75-1.717,2.828c-0.428,1.077-0.64,2.199-0.64,3.366V249.665z"/>
		<path fill="#009FE3" d="M905.62,261.785h-4.578l-8.216-19.056c-0.359,0.045-0.74,0.078-1.145,0.101
			c-0.404,0.023-0.786,0.033-1.145,0.033h-7.407v18.922h-4.444v-45.048c1.257-0.493,2.56-0.942,3.906-1.347
			c1.166-0.358,2.446-0.684,3.838-0.977c1.391-0.291,2.783-0.438,4.175-0.438c1.886,0,3.681,0.303,5.387,0.909
			c1.706,0.605,3.209,1.504,4.512,2.693c1.302,1.189,2.345,2.626,3.131,4.31c0.785,1.684,1.179,3.603,1.179,5.757
			c0,1.481-0.18,2.93-0.539,4.344s-0.864,2.738-1.515,3.973c-0.651,1.235-1.438,2.323-2.357,3.266s-1.919,1.684-2.996,2.222
			L905.62,261.785z M890.065,218.758c-0.719,0-1.481,0.078-2.289,0.235s-1.549,0.326-2.222,0.505
			c-0.809,0.226-1.595,0.472-2.357,0.741v17.844h6.868c3.053,0,5.499-0.897,7.34-2.693c1.84-1.795,2.761-4.377,2.761-7.744
			c0-1.616-0.247-2.996-0.74-4.141c-0.495-1.145-1.19-2.064-2.088-2.761c-0.898-0.695-1.964-1.201-3.198-1.516
			C892.904,218.915,891.547,218.758,890.065,218.758z"/>
		<path fill="#009FE3" d="M913.903,261.718h-4.579l10.773-47.135h6.397l10.773,47.135h-4.512l-2.963-12.861h-12.995L913.903,261.718
			z M923.397,219.835h-0.067c-0.898,4.085-1.784,8.114-2.66,12.087c-0.875,3.973-1.762,8.002-2.659,12.087h10.571L923.397,219.835z"
			/>
		<path fill="#009FE3" d="M963.528,214.649v4.714h-14.881v16.43h11.649v4.646h-11.649v21.346h-4.646v-47.136H963.528z"/>
	</g>
</g>
<g>
	<g>
		<path fill="#262626" d="M715.228,216.977c1.481,0,2.615,0.168,3.4,0.505c0.785,0.337,1.335,0.618,1.65,0.842l0.067,0.067
			c1.616,0.988,3.03,2.503,4.242,4.545c1.212,2.043,1.818,4.366,1.818,6.97c0,0.987-0.034,1.964-0.101,2.929
			c-0.067,0.966-0.235,1.909-0.505,2.828c-0.27,0.921-0.663,1.818-1.178,2.693c-0.517,0.876-1.224,1.695-2.121,2.458
			c1.167,0.808,2.098,1.64,2.794,2.491c0.695,0.854,1.222,1.729,1.582,2.626c0.359,0.898,0.595,1.83,0.707,2.795
			c0.112,0.966,0.168,1.986,0.168,3.063c0.044,1.393-0.079,2.672-0.37,3.839c-0.292,1.167-0.64,2.188-1.044,3.063
			c-0.404,0.875-0.808,1.582-1.212,2.121c-0.404,0.538-0.697,0.875-0.875,1.01c-0.808,0.764-1.818,1.448-3.03,2.054
			c-1.212,0.606-2.761,0.909-4.646,0.909H704.05V219.67c1.75-0.673,3.299-1.2,4.646-1.582c1.347-0.381,2.29-0.617,2.828-0.707
			C712.736,217.111,713.97,216.977,715.228,216.977z M721.422,230.175c-0.09-1.078-0.281-2.121-0.572-3.132
			c-0.292-1.01-0.719-1.907-1.279-2.693c-0.562-0.785-1.246-1.414-2.054-1.885c-0.808-0.472-1.751-0.707-2.828-0.707
			c-0.449,0-1.134,0.067-2.054,0.201c-0.921,0.135-2.234,0.563-3.939,1.28v15.218h6.33c1.256,0,2.29-0.225,3.098-0.674
			c0.808-0.448,1.458-1.044,1.953-1.784c0.494-0.741,0.842-1.616,1.044-2.626C721.321,232.363,721.422,231.297,721.422,230.175z
			 M708.696,243.17v16.834h7.878c1.212,0,2.232-0.212,3.064-0.64c0.83-0.426,1.492-1.01,1.986-1.75
			c0.493-0.741,0.842-1.616,1.043-2.627c0.202-1.01,0.303-2.075,0.303-3.198c0-1.167-0.101-2.277-0.303-3.333
			c-0.202-1.054-0.55-1.975-1.043-2.761c-0.495-0.785-1.156-1.402-1.986-1.852c-0.832-0.448-1.852-0.674-3.064-0.674H708.696z"/>
		<path fill="#262626" d="M736.169,217.649h4.377v47.136h-4.377V217.649z"/>
		<path fill="#262626" d="M776.301,253.001c0,0.988-0.191,2.188-0.572,3.603c-0.382,1.414-1.077,2.772-2.087,4.074
			c-1.01,1.303-2.368,2.413-4.074,3.333c-1.707,0.92-3.861,1.381-6.464,1.381c-2.559,0-4.669-0.461-6.33-1.381
			c-1.661-0.92-2.997-2.03-4.006-3.333c-1.01-1.302-1.717-2.66-2.121-4.074c-0.404-1.414-0.606-2.614-0.606-3.603v-23.163
			c0-0.987,0.19-2.211,0.572-3.67c0.381-1.458,1.066-2.862,2.054-4.209c0.987-1.347,2.333-2.502,4.04-3.468
			c1.706-0.965,3.86-1.447,6.464-1.447c2.559,0,4.68,0.472,6.363,1.414s3.03,2.087,4.04,3.434c1.01,1.348,1.717,2.751,2.121,4.209
			c0.404,1.459,0.606,2.683,0.606,3.67V253.001z M771.79,229.771c0-1.66-0.314-2.997-0.943-4.007
			c-0.629-1.01-1.403-1.795-2.323-2.356c-0.921-0.561-1.875-0.932-2.862-1.111c-0.988-0.179-1.818-0.27-2.492-0.27
			s-1.504,0.102-2.491,0.304c-0.988,0.202-1.931,0.584-2.828,1.145c-0.898,0.562-1.673,1.347-2.323,2.356
			c-0.651,1.01-0.977,2.347-0.977,4.007v23.163c0,1.707,0.325,3.042,0.977,4.007c0.65,0.966,1.425,1.707,2.323,2.222
			c0.897,0.517,1.84,0.842,2.828,0.977c0.987,0.135,1.818,0.202,2.491,0.202s1.503-0.078,2.492-0.235
			c0.987-0.157,1.941-0.494,2.862-1.011c0.919-0.515,1.694-1.256,2.323-2.222c0.628-0.965,0.943-2.277,0.943-3.939V229.771z"/>
		<path fill="#262626" d="M785.323,219.737c2.828-1.167,5.162-1.919,7.003-2.256c1.84-0.337,3.075-0.505,3.704-0.505
			c1.795,0,3.445,0.37,4.949,1.111c1.503,0.74,2.816,1.75,3.939,3.03c1.122,1.279,1.997,2.75,2.626,4.41
			c0.628,1.661,0.942,3.434,0.942,5.319v21.278c0,1.886-0.359,3.647-1.077,5.286c-0.719,1.639-1.684,3.053-2.896,4.242
			s-2.616,2.121-4.208,2.794c-1.594,0.674-3.266,1.011-5.017,1.011c-0.36,0-0.786-0.023-1.279-0.067
			c-0.495-0.046-1.134-0.146-1.919-0.304c-0.786-0.157-1.729-0.403-2.828-0.74c-1.101-0.337-2.414-0.818-3.939-1.448V219.737z
			 M803.571,230.848c0-1.886-0.427-3.535-1.279-4.949c-0.853-1.414-1.774-2.458-2.761-3.131c-0.495-0.359-1.077-0.617-1.75-0.774
			s-1.257-0.235-1.751-0.235c-0.942,0-1.964,0.191-3.063,0.572c-1.101,0.382-2.121,0.774-3.064,1.178v35.756
			c1.571,0.629,2.794,1.01,3.67,1.145c0.875,0.135,1.537,0.202,1.986,0.202h0.269c1.032,0,2.021-0.246,2.963-0.741
			c0.943-0.493,1.785-1.166,2.525-2.02c0.741-0.853,1.323-1.818,1.75-2.896c0.426-1.077,0.64-2.222,0.64-3.435L803.571,230.848z"/>
		<path fill="#262626" d="M837.439,217.649v4.714h-14.881v16.363h11.65v4.713h-11.65v16.497h15.016v4.781h-19.662v-47.068H837.439z"
			/>
		<path fill="#262626" d="M849.358,252.665c0,1.167,0.224,2.245,0.673,3.231c0.448,0.988,1.044,1.863,1.784,2.626
			c0.741,0.765,1.594,1.358,2.56,1.785c0.965,0.427,1.986,0.64,3.063,0.64c0.448,0,1.044-0.078,1.784-0.236
			c0.741-0.156,1.852-0.616,3.333-1.38v-12.727h4.646v15.622c-2.649,1.438-4.814,2.335-6.498,2.693s-2.84,0.539-3.468,0.539
			c-1.841,0-3.524-0.371-5.05-1.111c-1.527-0.741-2.852-1.728-3.974-2.963c-1.122-1.234-1.986-2.682-2.592-4.343
			c-0.606-1.661-0.909-3.435-0.909-5.32v-21.009c0.179-4.264,1.402-7.619,3.67-10.066c2.267-2.446,5.263-3.67,8.989-3.67
			c0.673,0.045,1.458,0.158,2.356,0.337c0.897,0.18,1.706,0.403,2.425,0.673l4.578,1.751l-1.616,4.714l-5.117-1.953
			c-1.033-0.448-1.908-0.673-2.626-0.673c-1.077,0-2.11,0.247-3.098,0.74c-0.988,0.494-1.841,1.145-2.559,1.953
			c-0.719,0.808-1.291,1.75-1.717,2.828c-0.428,1.077-0.64,2.199-0.64,3.366V252.665z"/>
		<path fill="#262626" d="M902.62,264.785h-4.578l-8.216-19.056c-0.359,0.045-0.74,0.078-1.145,0.101
			c-0.404,0.023-0.786,0.033-1.145,0.033h-7.407v18.922h-4.444v-45.048c1.257-0.493,2.56-0.942,3.906-1.347
			c1.166-0.358,2.446-0.684,3.838-0.977c1.391-0.291,2.783-0.438,4.175-0.438c1.886,0,3.681,0.303,5.387,0.909
			c1.706,0.605,3.209,1.504,4.512,2.693c1.302,1.189,2.345,2.626,3.131,4.31c0.785,1.684,1.179,3.603,1.179,5.757
			c0,1.481-0.18,2.93-0.539,4.344s-0.864,2.738-1.515,3.973c-0.651,1.235-1.438,2.323-2.357,3.266s-1.919,1.684-2.996,2.222
			L902.62,264.785z M887.065,221.758c-0.719,0-1.481,0.078-2.289,0.235s-1.549,0.326-2.222,0.505
			c-0.809,0.226-1.595,0.472-2.357,0.741v17.844h6.868c3.053,0,5.499-0.897,7.34-2.693c1.84-1.795,2.761-4.377,2.761-7.744
			c0-1.616-0.247-2.996-0.74-4.141c-0.495-1.145-1.19-2.064-2.088-2.761c-0.898-0.695-1.964-1.201-3.198-1.516
			C889.904,221.915,888.547,221.758,887.065,221.758z"/>
		<path fill="#262626" d="M910.903,264.718h-4.579l10.773-47.135h6.397l10.773,47.135h-4.512l-2.963-12.861h-12.995L910.903,264.718
			z M920.397,222.835h-0.067c-0.898,4.085-1.784,8.114-2.66,12.087c-0.875,3.973-1.762,8.002-2.659,12.087h10.571L920.397,222.835z"
			/>
		<path fill="#262626" d="M960.528,217.649v4.714h-14.881v16.43h11.649v4.646h-11.649v21.346h-4.646v-47.136H960.528z"/>
	</g>
</g>
<g opacity="0.5">
	<g>
		<path fill="#FFED00" d="M23.5,254.635l0.15-14.25c0-1.866-0.017-4.541-0.05-8.024c-0.034-3.483-0.05-5.441-0.05-5.875
			c-0.4,0.067-0.667,0.1-0.8,0.1c-1,0-1.5-0.55-1.5-1.649c0-0.733,0.433-1.408,1.3-2.025c0.867-0.616,1.917-1.092,3.15-1.425
			c2.566-0.633,4.875-0.95,6.925-0.95s3.966,0.3,5.75,0.9c1.783,0.6,3.191,1.367,4.225,2.3c2,1.867,3,3.867,3,6
			c0,3.867-1.8,6.75-5.4,8.649c2.366,0.668,4.316,1.942,5.85,3.825c1.533,1.884,2.3,3.976,2.3,6.275c0,3.533-1.45,6.259-4.35,8.175
			c-2.9,1.917-6.767,2.875-11.6,2.875c-3.367,0-6.142-0.358-8.325-1.075c-2.184-0.716-3.275-1.642-3.275-2.774
			c0-0.4,0.125-0.733,0.375-1s0.592-0.4,1.025-0.4C22.632,254.285,23.066,254.402,23.5,254.635z M32.25,223.936
			c-1.467,0-3.083,0.233-4.85,0.699c-0.1,1.768-0.15,5.95-0.15,12.551c0.633-0.333,1.775-0.5,3.425-0.5
			c1.65,0,3.175,0.133,4.575,0.399c0.7-0.032,1.542-0.291,2.525-0.774c0.983-0.483,1.925-1.309,2.825-2.476
			c0.9-1.166,1.35-2.508,1.35-4.024s-0.792-2.875-2.375-4.075C37.991,224.535,35.549,223.936,32.25,223.936z M32.25,256.186
			c3.7,0,6.65-0.691,8.85-2.075c2.2-1.383,3.3-3.358,3.3-5.925c0-2.101-0.875-3.825-2.625-5.176c-1.75-1.35-3.625-2.191-5.625-2.524
			c-2.9,0.5-4.875,0.75-5.925,0.75c-1.05,0-2.042-0.116-2.975-0.351c0,7.334,0.066,12.284,0.2,14.851
			C29.016,256.035,30.616,256.186,32.25,256.186z"/>
		<path fill="#FFED00" d="M63.75,255.485l4.4-0.25c0.767,0,1.375,0.175,1.825,0.524c0.45,0.351,0.675,0.809,0.675,1.375
			c0,0.567-0.233,1.034-0.7,1.4c-0.467,0.366-1.067,0.55-1.8,0.55l-6.45-0.3l-6.6,0.25c-1.667,0-2.5-0.633-2.5-1.9
			c0-1.266,0.833-1.899,2.5-1.899c0.366,0,1.883,0.083,4.55,0.25c0.167-7.5,0.25-12.642,0.25-15.425s-0.083-7.926-0.25-15.426
			c-2.934,0.134-4.45,0.2-4.55,0.2c-1.6,0-2.4-0.616-2.4-1.85c0-0.601,0.216-1.075,0.65-1.425c0.433-0.351,1.016-0.525,1.75-0.525
			l6.6,0.25c1.133,0,2.45-0.05,3.95-0.15c1.5-0.1,2.475-0.149,2.925-0.149c0.45,0,0.916,0.192,1.4,0.575
			c0.483,0.383,0.725,0.858,0.725,1.425c0,0.567-0.234,1.024-0.7,1.375c-0.467,0.35-0.958,0.524-1.475,0.524
			c-0.517,0-2.108-0.082-4.775-0.25c-0.167,7.668-0.25,12.851-0.25,15.551C63.5,242.885,63.583,247.985,63.75,255.485z"/>
		<path fill="#FFED00" d="M103.699,226.186c3.133,3.767,4.7,8.367,4.7,13.8c0,5.434-1.583,10.05-4.75,13.85
			c-3.167,3.8-7.092,5.7-11.775,5.7c-4.684,0-8.6-1.9-11.75-5.7c-3.15-3.8-4.725-8.407-4.725-13.825c0-5.416,1.583-10.016,4.75-13.8
			c3.167-3.782,7.1-5.675,11.8-5.675C96.649,220.535,100.565,222.419,103.699,226.186z M91.899,255.885c3.533,0,6.491-1.6,8.875-4.8
			c2.383-3.2,3.575-6.925,3.575-11.175s-1.184-7.933-3.55-11.05c-2.367-3.116-5.333-4.675-8.9-4.675c-3.567,0-6.534,1.559-8.9,4.675
			c-2.367,3.117-3.55,6.8-3.55,11.05s1.191,7.975,3.575,11.175C85.407,254.285,88.365,255.885,91.899,255.885z"/>
		<path fill="#E6007E" d="M116.948,240.385l-0.25-14.3c-1.6,0-2.4-0.633-2.4-1.899c0-1.133,1.1-1.983,3.3-2.551
			c2.2-0.566,4.683-0.85,7.45-0.85c2.767,0,5.4,0.567,7.9,1.7c2.5,1.134,4.532,2.634,6.1,4.5c3.2,3.867,4.8,8.399,4.8,13.6
			c0,5-1.55,9.334-4.649,13c-1.5,1.8-3.459,3.242-5.875,4.325c-2.417,1.083-5.184,1.625-8.3,1.625c-3.117,0-5.717-0.358-7.8-1.075
			c-2.083-0.716-3.125-1.642-3.125-2.774c0-0.4,0.125-0.733,0.375-1s0.591-0.4,1.025-0.4c0.433,0,0.866,0.117,1.3,0.35
			L116.948,240.385z M136.148,229.335c-1.234-1.5-2.851-2.7-4.851-3.6c-2-0.9-4.25-1.351-6.75-1.351c-1.233,0-2.483,0.15-3.75,0.45
			c-0.167,2.567-0.25,7.358-0.25,14.375c0,7.018,0.1,12.525,0.3,16.525c0.8,0.167,2.2,0.25,4.2,0.25c4.733,0,8.4-1.517,11-4.55
			c2.601-3.033,3.9-6.708,3.9-11.025C139.948,236.094,138.681,232.402,136.148,229.335z"/>
		<path fill="#E6007E" d="M163.148,255.485l8.1-0.25c1.667,0,2.5,0.634,2.5,1.899c0,1.268-0.833,1.9-2.5,1.9l-8.1-0.25l-8.75,0.25
			c-1.5,0-2.25-0.633-2.25-1.9c0-1.166,0.041-3.133,0.125-5.899c0.083-2.767,0.125-6.3,0.125-10.601c-0.3,0.034-0.634,0.051-1,0.051
			c-1.601,0-2.4-0.617-2.4-1.851c0-0.566,0.217-1.032,0.65-1.399c0.433-0.367,0.925-0.551,1.475-0.551s0.976,0.018,1.275,0.051
			c-0.067-6.7-0.184-10.75-0.351-12.15c-0.399-0.566-0.6-1.183-0.6-1.85c0-1.267,0.883-1.9,2.65-1.9l9.649,0.25l7.5-0.25
			c1.667,0,2.5,0.634,2.5,1.9s-0.833,1.899-2.5,1.899l-7.5-0.25c-3.8,0-6.3,0.067-7.5,0.2c-0.167,4.367-0.25,8.45-0.25,12.25
			c1.467,0.067,2.633,0.1,3.5,0.1l9-0.25c0.767,0,1.375,0.176,1.825,0.525s0.675,0.825,0.675,1.425c0,1.233-0.833,1.851-2.5,1.851
			l-9-0.25c-0.934,0-2.1,0.033-3.5,0.1v4.95c0,4.967,0.083,8.233,0.25,9.8C158.581,255.419,160.881,255.485,163.148,255.485z"/>
		<path fill="#009FE3" d="M194.348,239.035l6.6,0.25c1.133,0,2.45-0.05,3.95-0.15c1.5-0.1,2.333-0.149,2.5-0.149
			c1.7,0,2.55,0.733,2.55,2.2c0,5.633-1.383,10.108-4.149,13.425c-2.768,3.317-6.393,4.975-10.875,4.975
			c-4.483,0-8.268-1.899-11.351-5.7c-3.083-3.8-4.625-8.425-4.625-13.875c0-5.449,1.592-10.058,4.775-13.824
			c3.183-3.767,7.191-5.65,12.025-5.65c3,0,5.707,0.584,8.125,1.75c2.416,1.167,3.625,2.434,3.625,3.8
			c0,0.534-0.159,0.95-0.476,1.25c-0.317,0.3-0.742,0.45-1.274,0.45c-0.534,0-1.125-0.191-1.775-0.575
			c-0.65-0.383-1.268-0.816-1.85-1.3c-0.584-0.482-1.442-0.916-2.575-1.3c-1.134-0.383-2.4-0.575-3.8-0.575
			c-3.7,0-6.75,1.575-9.15,4.725c-2.4,3.15-3.6,6.867-3.6,11.15s1.149,8.042,3.449,11.275c2.301,3.233,5.217,4.85,8.75,4.85
			c3,0,5.492-1.158,7.476-3.475c1.982-2.316,3.008-5.575,3.075-9.775c-1.668-0.133-3.268-0.2-4.801-0.2l-6.6,0.25
			c-1.6,0-2.4-0.616-2.4-1.85c0-0.601,0.217-1.075,0.65-1.425C193.03,239.21,193.614,239.035,194.348,239.035z"/>
		<path fill="#009FE3" d="M221.147,243.436l0.25,13.3c0,0.733-0.2,1.342-0.601,1.825c-0.399,0.482-0.883,0.725-1.449,0.725
			c-0.567,0-1.051-0.242-1.45-0.725c-0.4-0.483-0.601-0.983-0.601-1.5s0.033-1.575,0.101-3.176c0.133-4.732,0.2-8.857,0.2-12.375
			c0-3.516-0.018-6.266-0.051-8.25c-0.033-1.982-0.074-3.55-0.125-4.699c-0.05-1.15-0.074-1.842-0.074-2.075
			c-0.4,0.067-0.668,0.1-0.801,0.1c-1,0-1.5-0.55-1.5-1.649c0-1.367,1.316-2.441,3.95-3.226c2.633-0.782,4.983-1.175,7.05-1.175
			c4.566,0,8.017,1.075,10.351,3.225c2.333,2.15,3.5,4.793,3.5,7.926c0,2.133-0.675,4.175-2.025,6.125
			c-1.35,1.949-3.192,3.408-5.524,4.375c3.133,7.434,5.75,11.733,7.85,12.899c0.6,0.334,1.066,0.468,1.4,0.4
			c0.699-0.101,1.05,0.1,1.05,0.6c0,0.934-0.3,1.7-0.9,2.3c-0.6,0.601-1.283,0.9-2.05,0.9c-1.268,0-2.6-0.933-4-2.8
			c-2-2.866-4.317-7.25-6.95-13.15c-1.6,0.3-3.184,0.45-4.75,0.45L221.147,243.436z M236.197,231.985c0-2.366-0.85-4.292-2.55-5.775
			c-1.7-1.482-3.942-2.225-6.726-2.225s-4.691,0.3-5.725,0.899c-0.1,1.734-0.15,4.418-0.15,8.051s0.017,5.833,0.051,6.6
			c1.5-0.4,3.032-0.6,4.6-0.6c1.566,0,3,0.167,4.3,0.5c1.5-0.301,2.908-1.176,4.226-2.625
			C235.539,235.36,236.197,233.752,236.197,231.985z"/>
		<path fill="#009FE3" d="M269.497,242.885l2.2-0.05c0.732,0,1.333,0.184,1.8,0.55c0.467,0.367,0.7,0.834,0.7,1.4
			c0,1.268-1.167,1.9-3.5,1.9c0.532,1.633,0.925,2.833,1.175,3.6c0.25,0.768,0.592,1.733,1.025,2.9c0.866,2.399,1.3,3.833,1.3,4.3
			s-0.15,0.884-0.45,1.25s-0.717,0.55-1.25,0.55c-0.967,0-1.7-0.583-2.2-1.75c-0.467-1.267-1.042-3.033-1.725-5.3
			c-0.684-2.267-1.275-4.183-1.775-5.75c-4-0.101-6.783-0.15-8.35-0.15c-1.567,0-3.434,0.05-5.601,0.15
			c-2.066,6.934-3.167,10.583-3.3,10.95c-0.467,1.233-1.117,1.85-1.95,1.85c-0.5,0-0.899-0.167-1.199-0.5
			c-0.301-0.333-0.45-0.741-0.45-1.225s0.149-1.233,0.45-2.25c0.3-1.017,0.758-2.426,1.375-4.226c0.616-1.8,1.107-3.3,1.475-4.5
			h-0.9c-1.6,0-2.399-0.616-2.399-1.85s0.8-1.851,2.399-1.851c0.767,0,1.45,0.018,2.051,0.051c0.1-0.267,2.282-6.65,6.55-19.15
			c0.7-2,1.666-3,2.899-3c0.833,0,1.476,0.242,1.926,0.725c0.449,0.484,0.824,1.101,1.125,1.851c0.3,0.75,0.8,2.192,1.5,4.325
			C266.597,234.385,268.297,239.452,269.497,242.885z M253.947,243.035c1.866,0.1,3.857,0.15,5.975,0.15
			c2.116,0,4.042-0.051,5.775-0.15c-3.434-11.033-5.351-16.55-5.75-16.55c-0.468,0-2.018,4.134-4.65,12.399L253.947,243.035z"/>
		<path fill="#009FE3" d="M288.847,237.135l8.45-0.25c0.767,0,1.383,0.184,1.85,0.551s0.7,0.833,0.7,1.399
			c0,0.567-0.233,1.018-0.7,1.351s-1.083,0.5-1.85,0.5l-8.45-0.25c-0.934,0-2.1,0.033-3.5,0.1l0.25,15.85
			c0,1.934-0.684,2.9-2.05,2.9c-1.367,0-2.05-0.967-2.05-2.9c0-1.3,0.041-3.582,0.125-6.85c0.082-3.267,0.125-6.232,0.125-8.9
			c-0.301,0.034-0.634,0.051-1,0.051c-1.601,0-2.4-0.617-2.4-1.851c0-0.566,0.217-1.032,0.65-1.399
			c0.433-0.367,0.925-0.551,1.475-0.551s0.975,0.018,1.275,0.051c-0.067-6.7-0.184-10.75-0.351-12.15
			c-0.399-0.566-0.6-1.183-0.6-1.85c0-1.267,0.933-1.9,2.8-1.9l9.5,0.25l7.3-0.25c1.8,0,2.7,0.634,2.7,1.9s-0.9,1.899-2.7,1.899
			l-7.3-0.25c-3.8,0-6.3,0.067-7.5,0.2c-0.167,4.367-0.25,8.45-0.25,12.25C286.813,237.103,287.979,237.135,288.847,237.135z"/>
	</g>
</g>
<g>
	<g>
		<path fill="#262626" d="M20.5,257.635l0.15-14.25c0-1.866-0.017-4.541-0.05-8.024c-0.034-3.483-0.05-5.441-0.05-5.875
			c-0.4,0.067-0.667,0.1-0.8,0.1c-1,0-1.5-0.55-1.5-1.649c0-0.733,0.433-1.408,1.3-2.025c0.867-0.616,1.917-1.092,3.15-1.425
			c2.566-0.633,4.875-0.95,6.925-0.95s3.966,0.3,5.75,0.9c1.783,0.6,3.191,1.367,4.225,2.3c2,1.867,3,3.867,3,6
			c0,3.867-1.8,6.75-5.4,8.649c2.366,0.668,4.316,1.942,5.85,3.825c1.533,1.884,2.3,3.976,2.3,6.275c0,3.533-1.45,6.259-4.35,8.175
			c-2.9,1.917-6.767,2.875-11.6,2.875c-3.367,0-6.142-0.358-8.325-1.075c-2.184-0.716-3.275-1.642-3.275-2.774
			c0-0.4,0.125-0.733,0.375-1s0.592-0.4,1.025-0.4C19.632,257.285,20.066,257.402,20.5,257.635z M29.25,226.936
			c-1.467,0-3.083,0.233-4.85,0.699c-0.1,1.768-0.15,5.95-0.15,12.551c0.633-0.333,1.775-0.5,3.425-0.5
			c1.65,0,3.175,0.133,4.575,0.399c0.7-0.032,1.542-0.291,2.525-0.774c0.983-0.483,1.925-1.309,2.825-2.476
			c0.9-1.166,1.35-2.508,1.35-4.024s-0.792-2.875-2.375-4.075C34.991,227.535,32.549,226.936,29.25,226.936z M29.25,259.186
			c3.7,0,6.65-0.691,8.85-2.075c2.2-1.383,3.3-3.358,3.3-5.925c0-2.101-0.875-3.825-2.625-5.176c-1.75-1.35-3.625-2.191-5.625-2.524
			c-2.9,0.5-4.875,0.75-5.925,0.75c-1.05,0-2.042-0.116-2.975-0.351c0,7.334,0.066,12.284,0.2,14.851
			C26.016,259.035,27.616,259.186,29.25,259.186z"/>
		<path fill="#262626" d="M60.75,258.485l4.4-0.25c0.767,0,1.375,0.175,1.825,0.524c0.45,0.351,0.675,0.809,0.675,1.375
			c0,0.567-0.233,1.034-0.7,1.4c-0.467,0.366-1.067,0.55-1.8,0.55l-6.45-0.3l-6.6,0.25c-1.667,0-2.5-0.633-2.5-1.9
			c0-1.266,0.833-1.899,2.5-1.899c0.366,0,1.883,0.083,4.55,0.25c0.167-7.5,0.25-12.642,0.25-15.425s-0.083-7.926-0.25-15.426
			c-2.934,0.134-4.45,0.2-4.55,0.2c-1.6,0-2.4-0.616-2.4-1.85c0-0.601,0.216-1.075,0.65-1.425c0.433-0.351,1.016-0.525,1.75-0.525
			l6.6,0.25c1.133,0,2.45-0.05,3.95-0.15c1.5-0.1,2.475-0.149,2.925-0.149c0.45,0,0.916,0.192,1.4,0.575
			c0.483,0.383,0.725,0.858,0.725,1.425c0,0.567-0.234,1.024-0.7,1.375c-0.467,0.35-0.958,0.524-1.475,0.524
			c-0.517,0-2.108-0.082-4.775-0.25c-0.167,7.668-0.25,12.851-0.25,15.551C60.5,245.885,60.583,250.985,60.75,258.485z"/>
		<path fill="#262626" d="M100.699,229.186c3.133,3.767,4.7,8.367,4.7,13.8c0,5.434-1.583,10.05-4.75,13.85
			c-3.167,3.8-7.092,5.7-11.775,5.7c-4.684,0-8.6-1.9-11.75-5.7c-3.15-3.8-4.725-8.407-4.725-13.825c0-5.416,1.583-10.016,4.75-13.8
			c3.167-3.782,7.1-5.675,11.8-5.675C93.649,223.535,97.565,225.419,100.699,229.186z M88.899,258.885c3.533,0,6.491-1.6,8.875-4.8
			c2.383-3.2,3.575-6.925,3.575-11.175s-1.184-7.933-3.55-11.05c-2.367-3.116-5.333-4.675-8.9-4.675c-3.567,0-6.534,1.559-8.9,4.675
			c-2.367,3.117-3.55,6.8-3.55,11.05s1.191,7.975,3.575,11.175C82.407,257.285,85.365,258.885,88.899,258.885z"/>
		<path fill="#262626" d="M113.948,243.385l-0.25-14.3c-1.6,0-2.4-0.633-2.4-1.899c0-1.133,1.1-1.983,3.3-2.551
			c2.2-0.566,4.683-0.85,7.45-0.85c2.767,0,5.4,0.567,7.9,1.7c2.5,1.134,4.532,2.634,6.1,4.5c3.2,3.867,4.8,8.399,4.8,13.6
			c0,5-1.55,9.334-4.649,13c-1.5,1.8-3.459,3.242-5.875,4.325c-2.417,1.083-5.184,1.625-8.3,1.625c-3.117,0-5.717-0.358-7.8-1.075
			c-2.083-0.716-3.125-1.642-3.125-2.774c0-0.4,0.125-0.733,0.375-1s0.591-0.4,1.025-0.4c0.433,0,0.866,0.117,1.3,0.35
			L113.948,243.385z M133.148,232.335c-1.234-1.5-2.851-2.7-4.851-3.6c-2-0.9-4.25-1.351-6.75-1.351c-1.233,0-2.483,0.15-3.75,0.45
			c-0.167,2.567-0.25,7.358-0.25,14.375c0,7.018,0.1,12.525,0.3,16.525c0.8,0.167,2.2,0.25,4.2,0.25c4.733,0,8.4-1.517,11-4.55
			c2.601-3.033,3.9-6.708,3.9-11.025C136.948,239.094,135.681,235.402,133.148,232.335z"/>
		<path fill="#262626" d="M160.148,258.485l8.1-0.25c1.667,0,2.5,0.634,2.5,1.899c0,1.268-0.833,1.9-2.5,1.9l-8.1-0.25l-8.75,0.25
			c-1.5,0-2.25-0.633-2.25-1.9c0-1.166,0.041-3.133,0.125-5.899c0.083-2.767,0.125-6.3,0.125-10.601c-0.3,0.034-0.634,0.051-1,0.051
			c-1.601,0-2.4-0.617-2.4-1.851c0-0.566,0.217-1.032,0.65-1.399c0.433-0.367,0.925-0.551,1.475-0.551s0.976,0.018,1.275,0.051
			c-0.067-6.7-0.184-10.75-0.351-12.15c-0.399-0.566-0.6-1.183-0.6-1.85c0-1.267,0.883-1.9,2.65-1.9l9.649,0.25l7.5-0.25
			c1.667,0,2.5,0.634,2.5,1.9s-0.833,1.899-2.5,1.899l-7.5-0.25c-3.8,0-6.3,0.067-7.5,0.2c-0.167,4.367-0.25,8.45-0.25,12.25
			c1.467,0.067,2.633,0.1,3.5,0.1l9-0.25c0.767,0,1.375,0.176,1.825,0.525s0.675,0.825,0.675,1.425c0,1.233-0.833,1.851-2.5,1.851
			l-9-0.25c-0.934,0-2.1,0.033-3.5,0.1v4.95c0,4.967,0.083,8.233,0.25,9.8C155.581,258.419,157.881,258.485,160.148,258.485z"/>
		<path fill="#262626" d="M191.348,242.035l6.6,0.25c1.133,0,2.45-0.05,3.95-0.15c1.5-0.1,2.333-0.149,2.5-0.149
			c1.7,0,2.55,0.733,2.55,2.2c0,5.633-1.383,10.108-4.149,13.425c-2.768,3.317-6.393,4.975-10.875,4.975
			c-4.483,0-8.268-1.899-11.351-5.7c-3.083-3.8-4.625-8.425-4.625-13.875c0-5.449,1.592-10.058,4.775-13.824
			c3.183-3.767,7.191-5.65,12.025-5.65c3,0,5.707,0.584,8.125,1.75c2.416,1.167,3.625,2.434,3.625,3.8
			c0,0.534-0.159,0.95-0.476,1.25c-0.317,0.3-0.742,0.45-1.274,0.45c-0.534,0-1.125-0.191-1.775-0.575
			c-0.65-0.383-1.268-0.816-1.85-1.3c-0.584-0.482-1.442-0.916-2.575-1.3c-1.134-0.383-2.4-0.575-3.8-0.575
			c-3.7,0-6.75,1.575-9.15,4.725c-2.4,3.15-3.6,6.867-3.6,11.15s1.149,8.042,3.449,11.275c2.301,3.233,5.217,4.85,8.75,4.85
			c3,0,5.492-1.158,7.476-3.475c1.982-2.316,3.008-5.575,3.075-9.775c-1.668-0.133-3.268-0.2-4.801-0.2l-6.6,0.25
			c-1.6,0-2.4-0.616-2.4-1.85c0-0.601,0.217-1.075,0.65-1.425C190.03,242.21,190.614,242.035,191.348,242.035z"/>
		<path fill="#262626" d="M218.147,246.436l0.25,13.3c0,0.733-0.2,1.342-0.601,1.825c-0.399,0.482-0.883,0.725-1.449,0.725
			c-0.567,0-1.051-0.242-1.45-0.725c-0.4-0.483-0.601-0.983-0.601-1.5s0.033-1.575,0.101-3.176c0.133-4.732,0.2-8.857,0.2-12.375
			c0-3.516-0.018-6.266-0.051-8.25c-0.033-1.982-0.074-3.55-0.125-4.699c-0.05-1.15-0.074-1.842-0.074-2.075
			c-0.4,0.067-0.668,0.1-0.801,0.1c-1,0-1.5-0.55-1.5-1.649c0-1.367,1.316-2.441,3.95-3.226c2.633-0.782,4.983-1.175,7.05-1.175
			c4.566,0,8.017,1.075,10.351,3.225c2.333,2.15,3.5,4.793,3.5,7.926c0,2.133-0.675,4.175-2.025,6.125
			c-1.35,1.949-3.192,3.408-5.524,4.375c3.133,7.434,5.75,11.733,7.85,12.899c0.6,0.334,1.066,0.468,1.4,0.4
			c0.699-0.101,1.05,0.1,1.05,0.6c0,0.934-0.3,1.7-0.9,2.3c-0.6,0.601-1.283,0.9-2.05,0.9c-1.268,0-2.6-0.933-4-2.8
			c-2-2.866-4.317-7.25-6.95-13.15c-1.6,0.3-3.184,0.45-4.75,0.45L218.147,246.436z M233.197,234.985c0-2.366-0.85-4.292-2.55-5.775
			c-1.7-1.482-3.942-2.225-6.726-2.225s-4.691,0.3-5.725,0.899c-0.1,1.734-0.15,4.418-0.15,8.051s0.017,5.833,0.051,6.6
			c1.5-0.4,3.032-0.6,4.6-0.6c1.566,0,3,0.167,4.3,0.5c1.5-0.301,2.908-1.176,4.226-2.625
			C232.539,238.36,233.197,236.752,233.197,234.985z"/>
		<path fill="#262626" d="M266.497,245.885l2.2-0.05c0.732,0,1.333,0.184,1.8,0.55c0.467,0.367,0.7,0.834,0.7,1.4
			c0,1.268-1.167,1.9-3.5,1.9c0.532,1.633,0.925,2.833,1.175,3.6c0.25,0.768,0.592,1.733,1.025,2.9c0.866,2.399,1.3,3.833,1.3,4.3
			s-0.15,0.884-0.45,1.25s-0.717,0.55-1.25,0.55c-0.967,0-1.7-0.583-2.2-1.75c-0.467-1.267-1.042-3.033-1.725-5.3
			c-0.684-2.267-1.275-4.183-1.775-5.75c-4-0.101-6.783-0.15-8.35-0.15c-1.567,0-3.434,0.05-5.601,0.15
			c-2.066,6.934-3.167,10.583-3.3,10.95c-0.467,1.233-1.117,1.85-1.95,1.85c-0.5,0-0.899-0.167-1.199-0.5
			c-0.301-0.333-0.45-0.741-0.45-1.225s0.149-1.233,0.45-2.25c0.3-1.017,0.758-2.426,1.375-4.226c0.616-1.8,1.107-3.3,1.475-4.5
			h-0.9c-1.6,0-2.399-0.616-2.399-1.85s0.8-1.851,2.399-1.851c0.767,0,1.45,0.018,2.051,0.051c0.1-0.267,2.282-6.65,6.55-19.15
			c0.7-2,1.666-3,2.899-3c0.833,0,1.476,0.242,1.926,0.725c0.449,0.484,0.824,1.101,1.125,1.851c0.3,0.75,0.8,2.192,1.5,4.325
			C263.597,237.385,265.297,242.452,266.497,245.885z M250.947,246.035c1.866,0.1,3.857,0.15,5.975,0.15
			c2.116,0,4.042-0.051,5.775-0.15c-3.434-11.033-5.351-16.55-5.75-16.55c-0.468,0-2.018,4.134-4.65,12.399L250.947,246.035z"/>
		<path fill="#262626" d="M285.847,240.135l8.45-0.25c0.767,0,1.383,0.184,1.85,0.551s0.7,0.833,0.7,1.399
			c0,0.567-0.233,1.018-0.7,1.351s-1.083,0.5-1.85,0.5l-8.45-0.25c-0.934,0-2.1,0.033-3.5,0.1l0.25,15.85
			c0,1.934-0.684,2.9-2.05,2.9c-1.367,0-2.05-0.967-2.05-2.9c0-1.3,0.041-3.582,0.125-6.85c0.082-3.267,0.125-6.232,0.125-8.9
			c-0.301,0.034-0.634,0.051-1,0.051c-1.601,0-2.4-0.617-2.4-1.851c0-0.566,0.217-1.032,0.65-1.399
			c0.433-0.367,0.925-0.551,1.475-0.551s0.975,0.018,1.275,0.051c-0.067-6.7-0.184-10.75-0.351-12.15
			c-0.399-0.566-0.6-1.183-0.6-1.85c0-1.267,0.933-1.9,2.8-1.9l9.5,0.25l7.3-0.25c1.8,0,2.7,0.634,2.7,1.9s-0.9,1.899-2.7,1.899
			l-7.3-0.25c-3.8,0-6.3,0.067-7.5,0.2c-0.167,4.367-0.25,8.45-0.25,12.25C283.813,240.103,284.979,240.135,285.847,240.135z"/>
	</g>
</g>
<g>
	<linearGradient id="SVGID_4_" gradientUnits="userSpaceOnUse" x1="458.1577" y1="55" x2="458.1577" y2="127.0005">
		<stop  offset="0" style="stop-color:#FFED00"/>
		<stop  offset="0.0854" style="stop-color:#FFDF00"/>
		<stop  offset="0.187" style="stop-color:#FFD300"/>
		<stop  offset="0.2916" style="stop-color:#FECB00"/>
		<stop  offset="0.4031" style="stop-color:#FDC800"/>
		<stop  offset="0.6082" style="stop-color:#F7AE00"/>
		<stop  offset="0.8655" style="stop-color:#F18F00"/>
		<stop  offset="1" style="stop-color:#EF8300"/>
	</linearGradient>
	<path fill="url(#SVGID_4_)" d="M503.158,55v36h-54v36h-36V67c0-6.63,5.37-12,12-12H503.158z"/>
	<linearGradient id="SVGID_5_" gradientUnits="userSpaceOnUse" x1="413.1577" y1="168" x2="503.1577" y2="168">
		<stop  offset="0" style="stop-color:#FFEF26"/>
		<stop  offset="0" style="stop-color:#FFE832"/>
		<stop  offset="0" style="stop-color:#FCC455"/>
		<stop  offset="0" style="stop-color:#F59F61"/>
		<stop  offset="0" style="stop-color:#EF7C65"/>
		<stop  offset="0" style="stop-color:#EB5C63"/>
		<stop  offset="0" style="stop-color:#E83D5F"/>
		<stop  offset="0" style="stop-color:#E7255D"/>
		<stop  offset="0" style="stop-color:#E6075B"/>
		<stop  offset="0" style="stop-color:#E5005B"/>
		<stop  offset="0.039" style="stop-color:#E6005F"/>
		<stop  offset="0.1096" style="stop-color:#E5006B"/>
		<stop  offset="0.2032" style="stop-color:#E6007C"/>
		<stop  offset="0.2147" style="stop-color:#E6007E"/>
		<stop  offset="0.5183" style="stop-color:#E6007E"/>
		<stop  offset="0.6793" style="stop-color:#CC007F"/>
		<stop  offset="0.83" style="stop-color:#B60F80"/>
		<stop  offset="0.911" style="stop-color:#AD1380"/>
	</linearGradient>
	<path fill="url(#SVGID_5_)" d="M503.158,168v36h-78c-6.63,0-12-5.37-12-12v-60h36v18h27v18H503.158z"/>
	<linearGradient id="SVGID_6_" gradientUnits="userSpaceOnUse" x1="508.1577" y1="168" x2="598.1577" y2="168">
		<stop  offset="0" style="stop-color:#FFEF26"/>
		<stop  offset="0" style="stop-color:#FFDF4B"/>
		<stop  offset="0" style="stop-color:#FBC170"/>
		<stop  offset="0" style="stop-color:#F5A280"/>
		<stop  offset="0" style="stop-color:#F08685"/>
		<stop  offset="0" style="stop-color:#ED6D85"/>
		<stop  offset="0" style="stop-color:#EB5983"/>
		<stop  offset="0" style="stop-color:#EA4C81"/>
		<stop  offset="0" style="stop-color:#E94881"/>
		<stop  offset="0" style="stop-color:#EA4C81"/>
		<stop  offset="0" style="stop-color:#DB4E84"/>
		<stop  offset="0" style="stop-color:#B4508D"/>
		<stop  offset="0" style="stop-color:#674F98"/>
		<stop  offset="0" style="stop-color:#354D9C"/>
		<stop  offset="0.0986" style="stop-color:#2457A4"/>
		<stop  offset="0.3004" style="stop-color:#0071BA"/>
		<stop  offset="0.5851" style="stop-color:#0093D8"/>
		<stop  offset="0.7016" style="stop-color:#009FE3"/>
	</linearGradient>
	<path fill="url(#SVGID_6_)" d="M598.158,132v60c0,6.63-5.37,12-12,12h-78v-36h27v-18h27v-18H598.158z"/>
	<line fill="none" stroke="#B2B2B2" stroke-miterlimit="10" x1="447.158" y1="125" x2="447.158" y2="134"/>
	<path fill="none" stroke="#B2B2B2" stroke-miterlimit="10" d="M515.177,134h-5.02v-0.25C511.837,133.93,513.507,134,515.177,134z"
		/>
	<path fill="none" stroke="#B2B2B2" stroke-miterlimit="10" d="M518.828,134h-3.65c1.211,0,2.41-0.04,3.61-0.11
		C518.797,133.93,518.818,133.97,518.828,134z"/>
	<path fill="none" stroke="#E30613" stroke-miterlimit="10" d="M515.177,134h-5.02v-0.25C511.837,133.93,513.507,134,515.177,134z"
		/>
	<path fill="none" stroke="#E30613" stroke-miterlimit="10" d="M518.828,134h-3.65c1.211,0,2.41-0.04,3.61-0.11
		C518.797,133.93,518.818,133.97,518.828,134z"/>
	<path fill-rule="evenodd" clip-rule="evenodd" fill="#0A9438" d="M607.828,24.71c-0.99,9.27-2.189,18.53-3.3,27.79
		c-1.68,7.56-3.73,14.95-6.37,22.07c-2.17,5.85-4.75,11.53-7.84,16.97c0,0.01,0,0.01,0,0.01c-2.42,4.25-5.15,8.37-8.25,12.32
		c-5.86,7.45-12.49,13.62-19.91,18.45V91h-54V76.69c4.16-7.8,9.77-15.04,16.85-21.69c1.99-1.88,4.11-3.71,6.341-5.5
		c0.609-0.48,1.22-0.96,1.829-1.43c14.37-11.07,30.461-18.37,47.5-23.35c7.11-2.08,14.381-3.76,21.761-5.14
		C607.738,18.59,608.408,19.29,607.828,24.71z"/>
	<path fill-rule="evenodd" clip-rule="evenodd" fill="#69B866" d="M580.677,24.72c-17.039,4.98-33.13,12.28-47.5,23.35
		c10.131-13.71,22.7-25.4,36.53-35.94c4.29-3.27,5.2-2.95,7.12,2.15C578.138,17.75,579.408,21.23,580.677,24.72z"/>
	
		<polygon fill-rule="evenodd" clip-rule="evenodd" fill="#B2B2B2" stroke="#FFFFFF" stroke-width="4" stroke-miterlimit="10" points="
		564.158,89 564.158,152 537.158,152 537.158,134 474.158,134 474.158,152 447.158,152 447.158,89 	"/>
	<path fill-rule="evenodd" clip-rule="evenodd" fill="none" stroke="#E30613" stroke-miterlimit="10" d="M518.828,134h-3.65
		c1.211,0,2.41-0.04,3.61-0.11C518.797,133.93,518.818,133.97,518.828,134z"/>
	
		<rect x="474.158" y="134" fill-rule="evenodd" clip-rule="evenodd" fill="#B2B2B2" stroke="#FFFFFF" stroke-width="4" stroke-miterlimit="10" width="63" height="36"/>
	<line fill="none" stroke="#FFFFFF" stroke-width="4" stroke-miterlimit="10" x1="492.158" y1="161" x2="519.158" y2="161"/>
</g>
<g opacity="0.5">
	<g>
		<path fill="#FFED00" d="M393.385,214.977c1.481,0,2.615,0.168,3.4,0.505c0.785,0.337,1.335,0.618,1.65,0.842l0.067,0.067
			c1.616,0.988,3.03,2.503,4.242,4.545c1.212,2.043,1.818,4.366,1.818,6.97c0,0.987-0.034,1.964-0.101,2.929
			c-0.067,0.966-0.235,1.909-0.505,2.828c-0.27,0.921-0.663,1.818-1.178,2.693c-0.517,0.876-1.224,1.695-2.121,2.458
			c1.167,0.808,2.098,1.64,2.794,2.491c0.695,0.854,1.222,1.729,1.582,2.626c0.359,0.898,0.595,1.83,0.707,2.795
			c0.112,0.966,0.168,1.986,0.168,3.063c0.044,1.393-0.079,2.672-0.37,3.839c-0.292,1.167-0.64,2.188-1.044,3.063
			c-0.404,0.875-0.808,1.582-1.212,2.121c-0.404,0.538-0.697,0.875-0.875,1.01c-0.808,0.764-1.818,1.448-3.03,2.054
			c-1.212,0.606-2.761,0.909-4.646,0.909h-12.524V217.67c1.75-0.673,3.299-1.2,4.646-1.582c1.347-0.381,2.29-0.617,2.828-0.707
			C390.894,215.111,392.128,214.977,393.385,214.977z M399.58,228.175c-0.09-1.078-0.281-2.121-0.572-3.132
			c-0.292-1.01-0.719-1.907-1.279-2.693c-0.562-0.785-1.246-1.414-2.054-1.885c-0.808-0.472-1.751-0.707-2.828-0.707
			c-0.449,0-1.134,0.067-2.054,0.201c-0.921,0.135-2.234,0.563-3.939,1.28v15.218h6.33c1.256,0,2.29-0.225,3.098-0.674
			c0.808-0.448,1.458-1.044,1.953-1.784c0.494-0.741,0.842-1.616,1.044-2.626C399.479,230.363,399.58,229.297,399.58,228.175z
			 M386.854,241.17v16.834h7.878c1.212,0,2.232-0.212,3.064-0.64c0.83-0.426,1.492-1.01,1.986-1.75
			c0.493-0.741,0.842-1.616,1.043-2.627c0.202-1.01,0.303-2.075,0.303-3.198c0-1.167-0.101-2.277-0.303-3.333
			c-0.202-1.054-0.55-1.975-1.043-2.761c-0.495-0.785-1.156-1.402-1.986-1.852c-0.832-0.448-1.852-0.674-3.064-0.674H386.854z"/>
		<path fill="#FFED00" d="M414.327,215.649h4.377v47.136h-4.377V215.649z"/>
		<path fill="#FFED00" d="M454.458,251.001c0,0.988-0.191,2.188-0.572,3.603c-0.382,1.414-1.077,2.772-2.087,4.074
			c-1.01,1.303-2.368,2.413-4.074,3.333c-1.707,0.92-3.861,1.381-6.464,1.381c-2.559,0-4.669-0.461-6.33-1.381
			c-1.661-0.92-2.997-2.03-4.006-3.333c-1.01-1.302-1.717-2.66-2.121-4.074c-0.404-1.414-0.606-2.614-0.606-3.603v-23.163
			c0-0.987,0.19-2.211,0.572-3.67c0.381-1.458,1.066-2.862,2.054-4.209c0.987-1.347,2.333-2.502,4.04-3.468
			c1.706-0.965,3.86-1.447,6.464-1.447c2.559,0,4.68,0.472,6.363,1.414s3.03,2.087,4.04,3.434c1.01,1.348,1.717,2.751,2.121,4.209
			c0.404,1.459,0.606,2.683,0.606,3.67V251.001z M449.947,227.771c0-1.66-0.314-2.997-0.943-4.007
			c-0.629-1.01-1.403-1.795-2.323-2.356c-0.921-0.561-1.875-0.932-2.862-1.111c-0.988-0.179-1.818-0.27-2.492-0.27
			s-1.504,0.102-2.491,0.304c-0.988,0.202-1.931,0.584-2.828,1.145c-0.898,0.562-1.673,1.347-2.323,2.356
			c-0.651,1.01-0.977,2.347-0.977,4.007v23.163c0,1.707,0.325,3.042,0.977,4.007c0.65,0.966,1.425,1.707,2.323,2.222
			c0.897,0.517,1.84,0.842,2.828,0.977c0.987,0.135,1.818,0.202,2.491,0.202s1.503-0.078,2.492-0.235
			c0.987-0.157,1.941-0.494,2.862-1.011c0.919-0.515,1.694-1.256,2.323-2.222c0.628-0.965,0.943-2.277,0.943-3.939V227.771z"/>
		<path fill="#E6007E" d="M463.48,217.737c2.828-1.167,5.162-1.919,7.003-2.256c1.84-0.337,3.075-0.505,3.704-0.505
			c1.795,0,3.445,0.37,4.949,1.111c1.503,0.74,2.816,1.75,3.939,3.03c1.122,1.279,1.997,2.75,2.626,4.41
			c0.628,1.661,0.942,3.434,0.942,5.319v21.278c0,1.886-0.359,3.647-1.077,5.286c-0.719,1.639-1.684,3.053-2.896,4.242
			s-2.616,2.121-4.208,2.794c-1.594,0.674-3.266,1.011-5.017,1.011c-0.36,0-0.786-0.023-1.279-0.067
			c-0.495-0.046-1.134-0.146-1.919-0.304c-0.786-0.157-1.729-0.403-2.828-0.74c-1.101-0.337-2.414-0.818-3.939-1.448V217.737z
			 M481.729,228.848c0-1.886-0.427-3.535-1.279-4.949c-0.853-1.414-1.774-2.458-2.761-3.131c-0.495-0.359-1.077-0.617-1.75-0.774
			s-1.257-0.235-1.751-0.235c-0.942,0-1.964,0.191-3.063,0.572c-1.101,0.382-2.121,0.774-3.064,1.178v35.756
			c1.571,0.629,2.794,1.01,3.67,1.145c0.875,0.135,1.537,0.202,1.986,0.202h0.269c1.032,0,2.021-0.246,2.963-0.741
			c0.943-0.493,1.785-1.166,2.525-2.02c0.741-0.853,1.323-1.818,1.75-2.896c0.426-1.077,0.64-2.222,0.64-3.435L481.729,228.848z"/>
		<path fill="#E6007E" d="M515.597,215.649v4.714h-14.881v16.363h11.65v4.713h-11.65v16.497h15.016v4.781H496.07v-47.068H515.597z"
			/>
		<path fill="#009FE3" d="M527.516,250.665c0,1.167,0.224,2.245,0.673,3.231c0.448,0.988,1.044,1.863,1.784,2.626
			c0.741,0.765,1.594,1.358,2.56,1.785c0.965,0.427,1.986,0.64,3.063,0.64c0.448,0,1.044-0.078,1.784-0.236
			c0.741-0.156,1.852-0.616,3.333-1.38v-12.727h4.646v15.622c-2.649,1.438-4.814,2.335-6.498,2.693s-2.84,0.539-3.468,0.539
			c-1.841,0-3.524-0.371-5.05-1.111c-1.527-0.741-2.852-1.728-3.974-2.963c-1.122-1.234-1.986-2.682-2.592-4.343
			c-0.606-1.661-0.909-3.435-0.909-5.32v-21.009c0.179-4.264,1.402-7.619,3.67-10.066c2.267-2.446,5.263-3.67,8.989-3.67
			c0.673,0.045,1.458,0.158,2.356,0.337c0.897,0.18,1.706,0.403,2.425,0.673l4.578,1.751l-1.616,4.714l-5.117-1.953
			c-1.033-0.448-1.908-0.673-2.626-0.673c-1.077,0-2.11,0.247-3.098,0.74c-0.988,0.494-1.841,1.145-2.559,1.953
			c-0.719,0.808-1.291,1.75-1.717,2.828c-0.428,1.077-0.64,2.199-0.64,3.366V250.665z"/>
		<path fill="#009FE3" d="M580.778,262.785H576.2l-8.216-19.056c-0.359,0.045-0.74,0.078-1.145,0.101
			c-0.404,0.023-0.786,0.033-1.145,0.033h-7.407v18.922h-4.444v-45.048c1.257-0.493,2.56-0.942,3.906-1.347
			c1.166-0.358,2.446-0.684,3.838-0.977c1.391-0.291,2.783-0.438,4.175-0.438c1.886,0,3.681,0.303,5.387,0.909
			c1.706,0.605,3.209,1.504,4.512,2.693c1.302,1.189,2.345,2.626,3.131,4.31c0.785,1.684,1.179,3.603,1.179,5.757
			c0,1.481-0.18,2.93-0.539,4.344s-0.864,2.738-1.515,3.973c-0.651,1.235-1.438,2.323-2.357,3.266s-1.919,1.684-2.996,2.222
			L580.778,262.785z M565.223,219.758c-0.719,0-1.481,0.078-2.289,0.235s-1.549,0.326-2.222,0.505
			c-0.809,0.226-1.595,0.472-2.357,0.741v17.844h6.868c3.053,0,5.499-0.897,7.34-2.693c1.84-1.795,2.761-4.377,2.761-7.744
			c0-1.616-0.247-2.996-0.74-4.141c-0.495-1.145-1.19-2.064-2.088-2.761c-0.898-0.695-1.964-1.201-3.198-1.516
			C568.062,219.915,566.705,219.758,565.223,219.758z"/>
		<path fill="#009FE3" d="M589.061,262.718h-4.579l10.773-47.135h6.397l10.773,47.135h-4.512l-2.963-12.861h-12.995L589.061,262.718
			z M598.555,220.835h-0.067c-0.898,4.085-1.784,8.114-2.66,12.087c-0.875,3.973-1.762,8.002-2.659,12.087h10.571L598.555,220.835z"
			/>
		<path fill="#009FE3" d="M638.686,215.649v4.714h-14.881v16.43h11.649v4.646h-11.649v21.346h-4.646v-47.136H638.686z"/>
	</g>
</g>
<g>
	<g>
		<path fill="#262626" d="M390.385,217.977c1.481,0,2.615,0.168,3.4,0.505c0.785,0.337,1.335,0.618,1.65,0.842l0.067,0.067
			c1.616,0.988,3.03,2.503,4.242,4.545c1.212,2.043,1.818,4.366,1.818,6.97c0,0.987-0.034,1.964-0.101,2.929
			c-0.067,0.966-0.235,1.909-0.505,2.828c-0.27,0.921-0.663,1.818-1.178,2.693c-0.517,0.876-1.224,1.695-2.121,2.458
			c1.167,0.808,2.098,1.64,2.794,2.491c0.695,0.854,1.222,1.729,1.582,2.626c0.359,0.898,0.595,1.83,0.707,2.795
			c0.112,0.966,0.168,1.986,0.168,3.063c0.044,1.393-0.079,2.672-0.37,3.839c-0.292,1.167-0.64,2.188-1.044,3.063
			c-0.404,0.875-0.808,1.582-1.212,2.121c-0.404,0.538-0.697,0.875-0.875,1.01c-0.808,0.764-1.818,1.448-3.03,2.054
			c-1.212,0.606-2.761,0.909-4.646,0.909h-12.524V220.67c1.75-0.673,3.299-1.2,4.646-1.582c1.347-0.381,2.29-0.617,2.828-0.707
			C387.894,218.111,389.128,217.977,390.385,217.977z M396.58,231.175c-0.09-1.078-0.281-2.121-0.572-3.132
			c-0.292-1.01-0.719-1.907-1.279-2.693c-0.562-0.785-1.246-1.414-2.054-1.885c-0.808-0.472-1.751-0.707-2.828-0.707
			c-0.449,0-1.134,0.067-2.054,0.201c-0.921,0.135-2.234,0.563-3.939,1.28v15.218h6.33c1.256,0,2.29-0.225,3.098-0.674
			c0.808-0.448,1.458-1.044,1.953-1.784c0.494-0.741,0.842-1.616,1.044-2.626C396.479,233.363,396.58,232.297,396.58,231.175z
			 M383.854,244.17v16.834h7.878c1.212,0,2.232-0.212,3.064-0.64c0.83-0.426,1.492-1.01,1.986-1.75
			c0.493-0.741,0.842-1.616,1.043-2.627c0.202-1.01,0.303-2.075,0.303-3.198c0-1.167-0.101-2.277-0.303-3.333
			c-0.202-1.054-0.55-1.975-1.043-2.761c-0.495-0.785-1.156-1.402-1.986-1.852c-0.832-0.448-1.852-0.674-3.064-0.674H383.854z"/>
		<path fill="#262626" d="M411.327,218.649h4.377v47.136h-4.377V218.649z"/>
		<path fill="#262626" d="M451.458,254.001c0,0.988-0.191,2.188-0.572,3.603c-0.382,1.414-1.077,2.772-2.087,4.074
			c-1.01,1.303-2.368,2.413-4.074,3.333c-1.707,0.92-3.861,1.381-6.464,1.381c-2.559,0-4.669-0.461-6.33-1.381
			c-1.661-0.92-2.997-2.03-4.006-3.333c-1.01-1.302-1.717-2.66-2.121-4.074c-0.404-1.414-0.606-2.614-0.606-3.603v-23.163
			c0-0.987,0.19-2.211,0.572-3.67c0.381-1.458,1.066-2.862,2.054-4.209c0.987-1.347,2.333-2.502,4.04-3.468
			c1.706-0.965,3.86-1.447,6.464-1.447c2.559,0,4.68,0.472,6.363,1.414s3.03,2.087,4.04,3.434c1.01,1.348,1.717,2.751,2.121,4.209
			c0.404,1.459,0.606,2.683,0.606,3.67V254.001z M446.947,230.771c0-1.66-0.314-2.997-0.943-4.007
			c-0.629-1.01-1.403-1.795-2.323-2.356c-0.921-0.561-1.875-0.932-2.862-1.111c-0.988-0.179-1.818-0.27-2.492-0.27
			s-1.504,0.102-2.491,0.304c-0.988,0.202-1.931,0.584-2.828,1.145c-0.898,0.562-1.673,1.347-2.323,2.356
			c-0.651,1.01-0.977,2.347-0.977,4.007v23.163c0,1.707,0.325,3.042,0.977,4.007c0.65,0.966,1.425,1.707,2.323,2.222
			c0.897,0.517,1.84,0.842,2.828,0.977c0.987,0.135,1.818,0.202,2.491,0.202s1.503-0.078,2.492-0.235
			c0.987-0.157,1.941-0.494,2.862-1.011c0.919-0.515,1.694-1.256,2.323-2.222c0.628-0.965,0.943-2.277,0.943-3.939V230.771z"/>
		<path fill="#262626" d="M460.48,220.737c2.828-1.167,5.162-1.919,7.003-2.256c1.84-0.337,3.075-0.505,3.704-0.505
			c1.795,0,3.445,0.37,4.949,1.111c1.503,0.74,2.816,1.75,3.939,3.03c1.122,1.279,1.997,2.75,2.626,4.41
			c0.628,1.661,0.942,3.434,0.942,5.319v21.278c0,1.886-0.359,3.647-1.077,5.286c-0.719,1.639-1.684,3.053-2.896,4.242
			s-2.616,2.121-4.208,2.794c-1.594,0.674-3.266,1.011-5.017,1.011c-0.36,0-0.786-0.023-1.279-0.067
			c-0.495-0.046-1.134-0.146-1.919-0.304c-0.786-0.157-1.729-0.403-2.828-0.74c-1.101-0.337-2.414-0.818-3.939-1.448V220.737z
			 M478.729,231.848c0-1.886-0.427-3.535-1.279-4.949c-0.853-1.414-1.774-2.458-2.761-3.131c-0.495-0.359-1.077-0.617-1.75-0.774
			s-1.257-0.235-1.751-0.235c-0.942,0-1.964,0.191-3.063,0.572c-1.101,0.382-2.121,0.774-3.064,1.178v35.756
			c1.571,0.629,2.794,1.01,3.67,1.145c0.875,0.135,1.537,0.202,1.986,0.202h0.269c1.032,0,2.021-0.246,2.963-0.741
			c0.943-0.493,1.785-1.166,2.525-2.02c0.741-0.853,1.323-1.818,1.75-2.896c0.426-1.077,0.64-2.222,0.64-3.435L478.729,231.848z"/>
		<path fill="#262626" d="M512.597,218.649v4.714h-14.881v16.363h11.65v4.713h-11.65v16.497h15.016v4.781H493.07v-47.068H512.597z"
			/>
		<path fill="#262626" d="M524.516,253.665c0,1.167,0.224,2.245,0.673,3.231c0.448,0.988,1.044,1.863,1.784,2.626
			c0.741,0.765,1.594,1.358,2.56,1.785c0.965,0.427,1.986,0.64,3.063,0.64c0.448,0,1.044-0.078,1.784-0.236
			c0.741-0.156,1.852-0.616,3.333-1.38v-12.727h4.646v15.622c-2.649,1.438-4.814,2.335-6.498,2.693s-2.84,0.539-3.468,0.539
			c-1.841,0-3.524-0.371-5.05-1.111c-1.527-0.741-2.852-1.728-3.974-2.963c-1.122-1.234-1.986-2.682-2.592-4.343
			c-0.606-1.661-0.909-3.435-0.909-5.32v-21.009c0.179-4.264,1.402-7.619,3.67-10.066c2.267-2.446,5.263-3.67,8.989-3.67
			c0.673,0.045,1.458,0.158,2.356,0.337c0.897,0.18,1.706,0.403,2.425,0.673l4.578,1.751l-1.616,4.714l-5.117-1.953
			c-1.033-0.448-1.908-0.673-2.626-0.673c-1.077,0-2.11,0.247-3.098,0.74c-0.988,0.494-1.841,1.145-2.559,1.953
			c-0.719,0.808-1.291,1.75-1.717,2.828c-0.428,1.077-0.64,2.199-0.64,3.366V253.665z"/>
		<path fill="#262626" d="M577.778,265.785H573.2l-8.216-19.056c-0.359,0.045-0.74,0.078-1.145,0.101
			c-0.404,0.023-0.786,0.033-1.145,0.033h-7.407v18.922h-4.444v-45.048c1.257-0.493,2.56-0.942,3.906-1.347
			c1.166-0.358,2.446-0.684,3.838-0.977c1.391-0.291,2.783-0.438,4.175-0.438c1.886,0,3.681,0.303,5.387,0.909
			c1.706,0.605,3.209,1.504,4.512,2.693c1.302,1.189,2.345,2.626,3.131,4.31c0.785,1.684,1.179,3.603,1.179,5.757
			c0,1.481-0.18,2.93-0.539,4.344s-0.864,2.738-1.515,3.973c-0.651,1.235-1.438,2.323-2.357,3.266s-1.919,1.684-2.996,2.222
			L577.778,265.785z M562.223,222.758c-0.719,0-1.481,0.078-2.289,0.235s-1.549,0.326-2.222,0.505
			c-0.809,0.226-1.595,0.472-2.357,0.741v17.844h6.868c3.053,0,5.499-0.897,7.34-2.693c1.84-1.795,2.761-4.377,2.761-7.744
			c0-1.616-0.247-2.996-0.74-4.141c-0.495-1.145-1.19-2.064-2.088-2.761c-0.898-0.695-1.964-1.201-3.198-1.516
			C565.062,222.915,563.705,222.758,562.223,222.758z"/>
		<path fill="#262626" d="M586.061,265.718h-4.579l10.773-47.135h6.397l10.773,47.135h-4.512l-2.963-12.861h-12.995L586.061,265.718
			z M595.555,223.835h-0.067c-0.898,4.085-1.784,8.114-2.66,12.087c-0.875,3.973-1.762,8.002-2.659,12.087h10.571L595.555,223.835z"
			/>
		<path fill="#262626" d="M635.686,218.649v4.714h-14.881v16.43h11.649v4.646h-11.649v21.346h-4.646v-47.136H635.686z"/>
	</g>
</g>
<g>
	<linearGradient id="SVGID_7_" gradientUnits="userSpaceOnUse" x1="110.3354" y1="55" x2="110.3354" y2="127.0005">
		<stop  offset="0" style="stop-color:#FFED00"/>
		<stop  offset="0.0854" style="stop-color:#FFDF00"/>
		<stop  offset="0.187" style="stop-color:#FFD300"/>
		<stop  offset="0.2916" style="stop-color:#FECB00"/>
		<stop  offset="0.4031" style="stop-color:#FDC800"/>
		<stop  offset="0.6082" style="stop-color:#F7AE00"/>
		<stop  offset="0.8655" style="stop-color:#F18F00"/>
		<stop  offset="1" style="stop-color:#EF8300"/>
	</linearGradient>
	<path fill="url(#SVGID_7_)" d="M155.335,55v36h-54v36h-36V67c0-6.63,5.37-12,12-12H155.335z"/>
	<linearGradient id="SVGID_8_" gradientUnits="userSpaceOnUse" x1="65.3354" y1="168" x2="155.3354" y2="168">
		<stop  offset="0" style="stop-color:#FFEF26"/>
		<stop  offset="0" style="stop-color:#FFE832"/>
		<stop  offset="0" style="stop-color:#FCC455"/>
		<stop  offset="0" style="stop-color:#F59F61"/>
		<stop  offset="0" style="stop-color:#EF7C65"/>
		<stop  offset="0" style="stop-color:#EB5C63"/>
		<stop  offset="0" style="stop-color:#E83D5F"/>
		<stop  offset="0" style="stop-color:#E7255D"/>
		<stop  offset="0" style="stop-color:#E6075B"/>
		<stop  offset="0" style="stop-color:#E5005B"/>
		<stop  offset="0.039" style="stop-color:#E6005F"/>
		<stop  offset="0.1096" style="stop-color:#E5006B"/>
		<stop  offset="0.2032" style="stop-color:#E6007C"/>
		<stop  offset="0.2147" style="stop-color:#E6007E"/>
		<stop  offset="0.5183" style="stop-color:#E6007E"/>
		<stop  offset="0.6793" style="stop-color:#CC007F"/>
		<stop  offset="0.83" style="stop-color:#B60F80"/>
		<stop  offset="0.911" style="stop-color:#AD1380"/>
	</linearGradient>
	<path fill="url(#SVGID_8_)" d="M155.335,168v36h-78c-6.63,0-12-5.369-12-12v-60h36v18h27v18H155.335z"/>
	<linearGradient id="SVGID_9_" gradientUnits="userSpaceOnUse" x1="160.3354" y1="168" x2="250.3354" y2="168">
		<stop  offset="0" style="stop-color:#FFEF26"/>
		<stop  offset="0" style="stop-color:#FFDF4B"/>
		<stop  offset="0" style="stop-color:#FBC170"/>
		<stop  offset="0" style="stop-color:#F5A280"/>
		<stop  offset="0" style="stop-color:#F08685"/>
		<stop  offset="0" style="stop-color:#ED6D85"/>
		<stop  offset="0" style="stop-color:#EB5983"/>
		<stop  offset="0" style="stop-color:#EA4C81"/>
		<stop  offset="0" style="stop-color:#E94881"/>
		<stop  offset="0" style="stop-color:#EA4C81"/>
		<stop  offset="0" style="stop-color:#DB4E84"/>
		<stop  offset="0" style="stop-color:#B4508D"/>
		<stop  offset="0" style="stop-color:#674F98"/>
		<stop  offset="0" style="stop-color:#354D9C"/>
		<stop  offset="0.0986" style="stop-color:#2457A4"/>
		<stop  offset="0.3004" style="stop-color:#0071BA"/>
		<stop  offset="0.5851" style="stop-color:#0093D8"/>
		<stop  offset="0.7016" style="stop-color:#009FE3"/>
	</linearGradient>
	<path fill="url(#SVGID_9_)" d="M250.335,132v60c0,6.631-5.37,12-12,12h-78v-36h27v-18h27v-18H250.335z"/>
	<line fill="none" stroke="#B2B2B2" stroke-miterlimit="10" x1="99.335" y1="125" x2="99.335" y2="134"/>
	<path fill="none" stroke="#B2B2B2" stroke-miterlimit="10" d="M167.355,134h-5.02v-0.25C164.015,133.93,165.685,134,167.355,134z"
		/>
	<path fill="none" stroke="#B2B2B2" stroke-miterlimit="10" d="M171.005,134h-3.65c1.211,0,2.41-0.039,3.61-0.109
		C170.975,133.93,170.996,133.971,171.005,134z"/>
	<path fill="none" stroke="#E30613" stroke-miterlimit="10" d="M167.355,134h-5.02v-0.25C164.015,133.93,165.685,134,167.355,134z"
		/>
	<path fill="none" stroke="#E30613" stroke-miterlimit="10" d="M171.005,134h-3.65c1.211,0,2.41-0.039,3.61-0.109
		C170.975,133.93,170.996,133.971,171.005,134z"/>
	<path fill-rule="evenodd" clip-rule="evenodd" fill="#0A9438" d="M260.005,24.71c-0.99,9.27-2.189,18.53-3.3,27.79
		c-1.68,7.561-3.73,14.95-6.37,22.07c-2.17,5.85-4.75,11.529-7.84,16.97c0,0.01,0,0.01,0,0.01c-2.42,4.25-5.15,8.37-8.25,12.321
		c-5.86,7.45-12.49,13.62-19.91,18.45V91h-54V76.689c4.16-7.799,9.77-15.039,16.85-21.689c1.99-1.88,4.11-3.71,6.341-5.5
		c0.609-0.48,1.22-0.96,1.829-1.43c14.37-11.07,30.461-18.37,47.5-23.35c7.11-2.08,14.381-3.76,21.761-5.14
		C259.916,18.59,260.585,19.29,260.005,24.71z"/>
	<path fill-rule="evenodd" clip-rule="evenodd" fill="#69B866" d="M232.855,24.72c-17.039,4.98-33.13,12.28-47.5,23.35
		c10.131-13.71,22.7-25.4,36.53-35.94c4.29-3.27,5.2-2.95,7.12,2.15C230.316,17.75,231.585,21.23,232.855,24.72z"/>
	
		<polygon fill-rule="evenodd" clip-rule="evenodd" fill="#B2B2B2" stroke="#FFFFFF" stroke-width="4" stroke-miterlimit="10" points="
		216.335,89 216.335,152 189.335,152 189.335,134 126.335,134 126.335,152 99.335,152 99.335,89 	"/>
	<path fill-rule="evenodd" clip-rule="evenodd" fill="none" stroke="#E30613" stroke-miterlimit="10" d="M171.005,134h-3.65
		c1.211,0,2.41-0.039,3.61-0.109C170.975,133.93,170.996,133.971,171.005,134z"/>
	
		<rect x="126.335" y="134" fill-rule="evenodd" clip-rule="evenodd" fill="#B2B2B2" stroke="#FFFFFF" stroke-width="4" stroke-miterlimit="10" width="63" height="36"/>
	<line fill="none" stroke="#FFFFFF" stroke-width="4" stroke-miterlimit="10" x1="144.335" y1="161" x2="171.335" y2="161"/>
</g>
</svg>
