<?xml version="1.0" encoding="utf-8"?>
<!-- Generator: Adobe Illustrator 16.0.0, SVG Export Plug-In . SVG Version: 6.00 Build 0)  -->
<!DOCTYPE svg PUBLIC "-//W3C//DTD SVG 1.1//EN" "http://www.w3.org/Graphics/SVG/1.1/DTD/svg11.dtd">
<svg version="1.1" id="Capa_1" xmlns="http://www.w3.org/2000/svg" xmlns:xlink="http://www.w3.org/1999/xlink" x="0px" y="0px"
	 width="325px" height="276px" viewBox="0 0 325 276" enable-background="new 0 0 325 276" xml:space="preserve">
<path fill="none" stroke="#B2B2B2" stroke-miterlimit="10" d="M424,71.57V124h-36v-4.68c7.42-4.83,14.05-11,19.91-18.45
	c3.1-3.95,5.83-8.07,8.25-12.32c0,0,0,0,0-0.01C419.25,83.1,421.83,77.42,424,71.57z"/>
<path fill="none" stroke="#B2B2B2" stroke-miterlimit="10" d="M179.85-101c-7.08,6.65-12.689,13.89-16.85,21.69V-101H179.85z"/>
<path fill-rule="evenodd" clip-rule="evenodd" d="M-154.468-108.442c1.084-6.21,2.208-12.414,3.247-18.631
	c4.951-29.625,14.473-57.779,27.475-84.779c4.257-8.84,8.99-17.454,13.593-26.125c1.068-2.012,2.49-3.836,4.216-6.457
	c7.79,7.568,15.585,14.325,22.406,21.952c11.528,12.891,23.034,25.883,33.457,39.659c12.779,16.89,23.624,35.15,30.302,55.398
	c4.352,13.194,8.746,26.61,10.744,40.275c1.735,11.87,0.997,24.312-0.172,36.353c-2.574,26.52-12.037,50.809-27.203,72.642
	c-6.618,9.527-14.56,18.137-21.927,27.141c-2.403,2.937-4.323,2.793-6.503-0.579C-75.659,31.666-81.032,13.095-83.454-6.449
	c-2.631-21.236-0.354-42.197,4.022-63.006c0.366-1.739,0.68-3.489,0.399-5.371c-5.872,13.368-8.959,27.426-10.125,41.911
	c-1.196,14.868-0.939,29.836,3.514,44.084c4.326,13.84,10.31,27.162,15.612,40.831c-2.264-1.333-5.067-2.857-7.743-4.578
	c-31.604-20.325-55.682-46.911-67.797-83.04c-3.105-9.261-4.657-19.044-6.893-28.595c-0.717-3.064-1.338-6.152-2.003-9.229
	C-154.468-85.108-154.468-96.775-154.468-108.442z"/>
<path fill-rule="evenodd" clip-rule="evenodd" d="M326.786,8.715c-0.53-2.523-0.953-3.818-1.06-5.141
	c-2.658-32.927,1.688-64.766,17.937-93.819c7.234-12.936,17.029-24.541,26.45-36.108c4.313-5.297,10.396-9.217,15.901-13.471
	c44.429-34.337,96.204-48.67,150.828-55.104c10.065-1.186,10.352-0.908,8.56,9.102c-3.165,17.675-5.514,35.611-10.288,52.861
	c-10.131,36.603-25.339,70.903-51.871,99.028c-27.079,28.705-60.569,44.512-99.646,48.858c-15.657,1.744-31.261,1.369-46.806-1.09"
	/>
<linearGradient id="SVGID_1_" gradientUnits="userSpaceOnUse" x1="110.9995" y1="54" x2="110.9995" y2="126.0005">
	<stop  offset="0" style="stop-color:#FFED00"/>
	<stop  offset="0.0854" style="stop-color:#FFDF00"/>
	<stop  offset="0.187" style="stop-color:#FFD300"/>
	<stop  offset="0.2916" style="stop-color:#FECB00"/>
	<stop  offset="0.4031" style="stop-color:#FDC800"/>
	<stop  offset="0.6082" style="stop-color:#F7AE00"/>
	<stop  offset="0.8655" style="stop-color:#F18F00"/>
	<stop  offset="1" style="stop-color:#EF8300"/>
</linearGradient>
<path fill="url(#SVGID_1_)" d="M156,54v36h-54v36H66V66c0-6.63,5.37-12,12-12H156z"/>
<linearGradient id="SVGID_2_" gradientUnits="userSpaceOnUse" x1="66" y1="167" x2="156" y2="167">
	<stop  offset="0" style="stop-color:#FFEF26"/>
	<stop  offset="0" style="stop-color:#FFE832"/>
	<stop  offset="0" style="stop-color:#FCC455"/>
	<stop  offset="0" style="stop-color:#F59F61"/>
	<stop  offset="0" style="stop-color:#EF7C65"/>
	<stop  offset="0" style="stop-color:#EB5C63"/>
	<stop  offset="0" style="stop-color:#E83D5F"/>
	<stop  offset="0" style="stop-color:#E7255D"/>
	<stop  offset="0" style="stop-color:#E6075B"/>
	<stop  offset="0" style="stop-color:#E5005B"/>
	<stop  offset="0.039" style="stop-color:#E6005F"/>
	<stop  offset="0.1096" style="stop-color:#E5006B"/>
	<stop  offset="0.2032" style="stop-color:#E6007C"/>
	<stop  offset="0.2147" style="stop-color:#E6007E"/>
	<stop  offset="0.5183" style="stop-color:#E6007E"/>
	<stop  offset="0.5888" style="stop-color:#D5007F"/>
	<stop  offset="0.739" style="stop-color:#B21180"/>
	<stop  offset="0.8509" style="stop-color:#9B1A81"/>
	<stop  offset="0.911" style="stop-color:#921C81"/>
</linearGradient>
<path fill="url(#SVGID_2_)" d="M156,167v36H78c-6.63,0-12-5.37-12-12v-60h36v18h27v18H156z"/>
<linearGradient id="SVGID_3_" gradientUnits="userSpaceOnUse" x1="161" y1="167" x2="251" y2="167">
	<stop  offset="0" style="stop-color:#FFEF26"/>
	<stop  offset="0" style="stop-color:#FFDF4B"/>
	<stop  offset="0" style="stop-color:#FBC170"/>
	<stop  offset="0" style="stop-color:#F5A280"/>
	<stop  offset="0" style="stop-color:#F08685"/>
	<stop  offset="0" style="stop-color:#ED6D85"/>
	<stop  offset="0" style="stop-color:#EB5983"/>
	<stop  offset="0" style="stop-color:#EA4C81"/>
	<stop  offset="0" style="stop-color:#E94881"/>
	<stop  offset="0" style="stop-color:#EA4C81"/>
	<stop  offset="0" style="stop-color:#DB4E84"/>
	<stop  offset="0" style="stop-color:#B4508D"/>
	<stop  offset="0" style="stop-color:#674F98"/>
	<stop  offset="0" style="stop-color:#354D9C"/>
	<stop  offset="0.0986" style="stop-color:#2457A4"/>
	<stop  offset="0.3004" style="stop-color:#0071BA"/>
	<stop  offset="0.5851" style="stop-color:#0093D8"/>
	<stop  offset="0.7016" style="stop-color:#009FE3"/>
</linearGradient>
<path fill="url(#SVGID_3_)" d="M251,131v60c0,6.63-5.37,12-12,12h-78v-36h27v-18h27v-18H251z"/>
<line fill="none" stroke="#B2B2B2" stroke-miterlimit="10" x1="100" y1="124" x2="100" y2="133"/>
<path fill="none" stroke="#B2B2B2" stroke-miterlimit="10" d="M168.02,133H163v-0.25C164.68,132.93,166.35,133,168.02,133z"/>
<path fill="none" stroke="#B2B2B2" stroke-miterlimit="10" d="M171.67,133h-3.65c1.211,0,2.41-0.04,3.61-0.11
	C171.64,132.93,171.66,132.97,171.67,133z"/>
<path fill="none" stroke="#E30613" stroke-miterlimit="10" d="M168.02,133H163v-0.25C164.68,132.93,166.35,133,168.02,133z"/>
<path fill="none" stroke="#E30613" stroke-miterlimit="10" d="M171.67,133h-3.65c1.211,0,2.41-0.04,3.61-0.11
	C171.64,132.93,171.66,132.97,171.67,133z"/>
<path fill-rule="evenodd" clip-rule="evenodd" fill="#0A9438" d="M260.67,23.71c-0.99,9.27-2.189,18.53-3.3,27.79
	c-1.68,7.56-3.73,14.95-6.37,22.07c-2.17,5.85-4.75,11.53-7.84,16.97c0,0.01,0,0.01,0,0.01c-2.42,4.25-5.15,8.37-8.25,12.32
	c-5.86,7.45-12.49,13.62-19.91,18.45V90h-54V75.69c4.16-7.8,9.77-15.04,16.85-21.69c1.99-1.88,4.11-3.71,6.341-5.5
	c0.609-0.48,1.22-0.96,1.829-1.43C200.39,36,216.48,28.7,233.52,23.72c7.11-2.08,14.381-3.76,21.761-5.14
	C260.58,17.59,261.25,18.29,260.67,23.71z"/>
<path fill-rule="evenodd" clip-rule="evenodd" fill="#69B866" d="M233.52,23.72C216.48,28.7,200.39,36,186.02,47.07
	c10.131-13.71,22.7-25.4,36.53-35.94c4.29-3.27,5.2-2.95,7.12,2.15C230.98,16.75,232.25,20.23,233.52,23.72z"/>
<polygon fill-rule="evenodd" clip-rule="evenodd" fill="#FFFFFF" stroke="#262626" stroke-width="4" stroke-miterlimit="10" points="
	217,88 217,151 190,151 190,133 127,133 127,151 100,151 100,88 "/>
<path fill-rule="evenodd" clip-rule="evenodd" fill="none" stroke="#E30613" stroke-miterlimit="10" d="M171.67,133h-3.65
	c1.211,0,2.41-0.04,3.61-0.11C171.64,132.93,171.66,132.97,171.67,133z"/>
<rect x="127" y="133" fill-rule="evenodd" clip-rule="evenodd" fill="#FFFFFF" stroke="#262626" stroke-width="4" stroke-miterlimit="10" width="63" height="36"/>
<line fill="none" stroke="#3C3C3B" stroke-width="4" stroke-miterlimit="10" x1="145" y1="160" x2="172" y2="160"/>
<g opacity="0.5">
	<g>
		<path fill="#FFED00" d="M46.228,213.977c1.481,0,2.615,0.168,3.4,0.505c0.785,0.337,1.335,0.618,1.65,0.842l0.067,0.067
			c1.616,0.988,3.03,2.503,4.242,4.545c1.212,2.043,1.818,4.366,1.818,6.97c0,0.987-0.034,1.964-0.101,2.929
			c-0.067,0.966-0.235,1.909-0.505,2.828c-0.27,0.921-0.663,1.818-1.178,2.693c-0.517,0.876-1.224,1.695-2.121,2.458
			c1.167,0.808,2.098,1.64,2.794,2.491c0.695,0.854,1.222,1.729,1.582,2.626c0.359,0.898,0.595,1.83,0.707,2.795
			c0.112,0.966,0.168,1.986,0.168,3.063c0.044,1.393-0.079,2.672-0.37,3.839c-0.292,1.167-0.64,2.188-1.044,3.063
			c-0.404,0.875-0.808,1.582-1.212,2.121c-0.404,0.538-0.697,0.875-0.875,1.01c-0.808,0.764-1.818,1.448-3.03,2.054
			c-1.212,0.606-2.761,0.909-4.646,0.909H35.05V216.67c1.75-0.673,3.299-1.2,4.646-1.582c1.347-0.381,2.29-0.617,2.828-0.707
			C43.736,214.111,44.97,213.977,46.228,213.977z M52.422,227.175c-0.09-1.078-0.281-2.121-0.572-3.132
			c-0.292-1.01-0.719-1.907-1.279-2.693c-0.562-0.785-1.246-1.414-2.054-1.885c-0.808-0.472-1.751-0.707-2.828-0.707
			c-0.449,0-1.134,0.067-2.054,0.201c-0.921,0.135-2.234,0.563-3.939,1.28v15.218h6.33c1.256,0,2.29-0.225,3.098-0.674
			c0.808-0.448,1.458-1.044,1.953-1.784c0.494-0.741,0.842-1.616,1.044-2.626C52.321,229.363,52.422,228.297,52.422,227.175z
			 M39.696,240.17v16.834h7.878c1.212,0,2.232-0.212,3.064-0.64c0.83-0.426,1.492-1.01,1.986-1.75
			c0.493-0.741,0.842-1.616,1.043-2.627c0.202-1.01,0.303-2.075,0.303-3.198c0-1.167-0.101-2.277-0.303-3.333
			c-0.202-1.054-0.55-1.975-1.043-2.761c-0.495-0.785-1.156-1.402-1.986-1.852c-0.832-0.448-1.852-0.674-3.064-0.674H39.696z"/>
		<path fill="#FFED00" d="M67.169,214.649h4.377v47.136h-4.377V214.649z"/>
		<path fill="#FFED00" d="M107.301,250.001c0,0.988-0.191,2.188-0.572,3.603c-0.382,1.414-1.077,2.772-2.087,4.074
			c-1.01,1.303-2.368,2.413-4.074,3.333c-1.707,0.92-3.861,1.381-6.464,1.381c-2.559,0-4.669-0.461-6.33-1.381
			c-1.661-0.92-2.997-2.03-4.006-3.333c-1.01-1.302-1.717-2.66-2.121-4.074c-0.404-1.414-0.606-2.614-0.606-3.603v-23.163
			c0-0.987,0.19-2.211,0.572-3.67c0.381-1.458,1.066-2.862,2.054-4.209c0.987-1.347,2.333-2.502,4.04-3.468
			c1.706-0.965,3.86-1.447,6.464-1.447c2.559,0,4.68,0.472,6.363,1.414s3.03,2.087,4.04,3.434c1.01,1.348,1.717,2.751,2.121,4.209
			c0.404,1.459,0.606,2.683,0.606,3.67V250.001z M102.79,226.771c0-1.66-0.314-2.997-0.943-4.007
			c-0.629-1.01-1.403-1.795-2.323-2.356c-0.921-0.561-1.875-0.932-2.862-1.111c-0.988-0.179-1.818-0.27-2.492-0.27
			s-1.504,0.102-2.491,0.304c-0.988,0.202-1.931,0.584-2.828,1.145c-0.898,0.562-1.673,1.347-2.323,2.356
			c-0.651,1.01-0.977,2.347-0.977,4.007v23.163c0,1.707,0.325,3.042,0.977,4.007c0.65,0.966,1.425,1.707,2.323,2.222
			c0.897,0.517,1.84,0.842,2.828,0.977c0.987,0.135,1.818,0.202,2.491,0.202s1.503-0.078,2.492-0.235
			c0.987-0.157,1.941-0.494,2.862-1.011c0.919-0.515,1.694-1.256,2.323-2.222c0.628-0.965,0.943-2.277,0.943-3.939V226.771z"/>
		<path fill="#E6007E" d="M116.323,216.737c2.828-1.167,5.162-1.919,7.003-2.256c1.84-0.337,3.075-0.505,3.704-0.505
			c1.795,0,3.445,0.37,4.949,1.111c1.503,0.74,2.816,1.75,3.939,3.03c1.122,1.279,1.997,2.75,2.626,4.41
			c0.628,1.661,0.942,3.434,0.942,5.319v21.278c0,1.886-0.359,3.647-1.077,5.286c-0.719,1.639-1.684,3.053-2.896,4.242
			s-2.616,2.121-4.208,2.794c-1.594,0.674-3.266,1.011-5.017,1.011c-0.36,0-0.786-0.023-1.279-0.067
			c-0.495-0.046-1.134-0.146-1.919-0.304c-0.786-0.157-1.729-0.403-2.828-0.74c-1.101-0.337-2.414-0.818-3.939-1.448V216.737z
			 M134.571,227.848c0-1.886-0.427-3.535-1.279-4.949c-0.853-1.414-1.774-2.458-2.761-3.131c-0.495-0.359-1.077-0.617-1.75-0.774
			s-1.257-0.235-1.751-0.235c-0.942,0-1.964,0.191-3.063,0.572c-1.101,0.382-2.121,0.774-3.064,1.178v35.756
			c1.571,0.629,2.794,1.01,3.67,1.145c0.875,0.135,1.537,0.202,1.986,0.202h0.269c1.032,0,2.021-0.246,2.963-0.741
			c0.943-0.493,1.785-1.166,2.525-2.02c0.741-0.853,1.323-1.818,1.75-2.896c0.426-1.077,0.64-2.222,0.64-3.435L134.571,227.848z"/>
		<path fill="#E6007E" d="M168.439,214.649v4.714h-14.881v16.363h11.65v4.713h-11.65v16.497h15.016v4.781h-19.662v-47.068H168.439z"
			/>
		<path fill="#009FE3" d="M180.358,249.665c0,1.167,0.224,2.245,0.673,3.231c0.448,0.988,1.044,1.863,1.784,2.626
			c0.741,0.765,1.594,1.358,2.56,1.785c0.965,0.427,1.986,0.64,3.063,0.64c0.448,0,1.044-0.078,1.784-0.236
			c0.741-0.156,1.852-0.616,3.333-1.38v-12.727h4.646v15.622c-2.649,1.438-4.814,2.335-6.498,2.693s-2.84,0.539-3.468,0.539
			c-1.841,0-3.524-0.371-5.05-1.111c-1.527-0.741-2.852-1.728-3.974-2.963c-1.122-1.234-1.986-2.682-2.592-4.343
			c-0.606-1.661-0.909-3.435-0.909-5.32v-21.009c0.179-4.264,1.402-7.619,3.67-10.066c2.267-2.446,5.263-3.67,8.989-3.67
			c0.673,0.045,1.458,0.158,2.356,0.337c0.897,0.18,1.706,0.403,2.425,0.673l4.578,1.751l-1.616,4.714l-5.117-1.953
			c-1.033-0.448-1.908-0.673-2.626-0.673c-1.077,0-2.11,0.247-3.098,0.74c-0.988,0.494-1.841,1.145-2.559,1.953
			c-0.719,0.808-1.291,1.75-1.717,2.828c-0.428,1.077-0.64,2.199-0.64,3.366V249.665z"/>
		<path fill="#009FE3" d="M233.62,261.785h-4.578l-8.216-19.056c-0.359,0.045-0.74,0.078-1.145,0.101
			c-0.404,0.023-0.786,0.033-1.145,0.033h-7.407v18.922h-4.444v-45.048c1.257-0.493,2.56-0.942,3.906-1.347
			c1.166-0.358,2.446-0.684,3.838-0.977c1.391-0.291,2.783-0.438,4.175-0.438c1.886,0,3.681,0.303,5.387,0.909
			c1.706,0.605,3.209,1.504,4.512,2.693c1.302,1.189,2.345,2.626,3.131,4.31c0.785,1.684,1.179,3.603,1.179,5.757
			c0,1.481-0.18,2.93-0.539,4.344s-0.864,2.738-1.515,3.973c-0.651,1.235-1.438,2.323-2.357,3.266s-1.919,1.684-2.996,2.222
			L233.62,261.785z M218.065,218.758c-0.719,0-1.481,0.078-2.289,0.235s-1.549,0.326-2.222,0.505
			c-0.809,0.226-1.595,0.472-2.357,0.741v17.844h6.868c3.053,0,5.499-0.897,7.34-2.693c1.84-1.795,2.761-4.377,2.761-7.744
			c0-1.616-0.247-2.996-0.74-4.141c-0.495-1.145-1.19-2.064-2.088-2.761c-0.898-0.695-1.964-1.201-3.198-1.516
			C220.904,218.915,219.547,218.758,218.065,218.758z"/>
		<path fill="#009FE3" d="M241.903,261.718h-4.579l10.773-47.135h6.397l10.773,47.135h-4.512l-2.963-12.861h-12.995L241.903,261.718
			z M251.397,219.835h-0.067c-0.898,4.085-1.784,8.114-2.66,12.087c-0.875,3.973-1.762,8.002-2.659,12.087h10.571L251.397,219.835z"
			/>
		<path fill="#009FE3" d="M291.528,214.649v4.714h-14.881v16.43h11.649v4.646h-11.649v21.346h-4.646v-47.136H291.528z"/>
	</g>
</g>
<g>
	<g>
		<path fill="#262626" d="M43.228,216.977c1.481,0,2.615,0.168,3.4,0.505c0.785,0.337,1.335,0.618,1.65,0.842l0.067,0.067
			c1.616,0.988,3.03,2.503,4.242,4.545c1.212,2.043,1.818,4.366,1.818,6.97c0,0.987-0.034,1.964-0.101,2.929
			c-0.067,0.966-0.235,1.909-0.505,2.828c-0.27,0.921-0.663,1.818-1.178,2.693c-0.517,0.876-1.224,1.695-2.121,2.458
			c1.167,0.808,2.098,1.64,2.794,2.491c0.695,0.854,1.222,1.729,1.582,2.626c0.359,0.898,0.595,1.83,0.707,2.795
			c0.112,0.966,0.168,1.986,0.168,3.063c0.044,1.393-0.079,2.672-0.37,3.839c-0.292,1.167-0.64,2.188-1.044,3.063
			c-0.404,0.875-0.808,1.582-1.212,2.121c-0.404,0.538-0.697,0.875-0.875,1.01c-0.808,0.764-1.818,1.448-3.03,2.054
			c-1.212,0.606-2.761,0.909-4.646,0.909H32.05V219.67c1.75-0.673,3.299-1.2,4.646-1.582c1.347-0.381,2.29-0.617,2.828-0.707
			C40.736,217.111,41.97,216.977,43.228,216.977z M49.422,230.175c-0.09-1.078-0.281-2.121-0.572-3.132
			c-0.292-1.01-0.719-1.907-1.279-2.693c-0.562-0.785-1.246-1.414-2.054-1.885c-0.808-0.472-1.751-0.707-2.828-0.707
			c-0.449,0-1.134,0.067-2.054,0.201c-0.921,0.135-2.234,0.563-3.939,1.28v15.218h6.33c1.256,0,2.29-0.225,3.098-0.674
			c0.808-0.448,1.458-1.044,1.953-1.784c0.494-0.741,0.842-1.616,1.044-2.626C49.321,232.363,49.422,231.297,49.422,230.175z
			 M36.696,243.17v16.834h7.878c1.212,0,2.232-0.212,3.064-0.64c0.83-0.426,1.492-1.01,1.986-1.75
			c0.493-0.741,0.842-1.616,1.043-2.627c0.202-1.01,0.303-2.075,0.303-3.198c0-1.167-0.101-2.277-0.303-3.333
			c-0.202-1.054-0.55-1.975-1.043-2.761c-0.495-0.785-1.156-1.402-1.986-1.852c-0.832-0.448-1.852-0.674-3.064-0.674H36.696z"/>
		<path fill="#262626" d="M64.169,217.649h4.377v47.136h-4.377V217.649z"/>
		<path fill="#262626" d="M104.301,253.001c0,0.988-0.191,2.188-0.572,3.603c-0.382,1.414-1.077,2.772-2.087,4.074
			c-1.01,1.303-2.368,2.413-4.074,3.333c-1.707,0.92-3.861,1.381-6.464,1.381c-2.559,0-4.669-0.461-6.33-1.381
			c-1.661-0.92-2.997-2.03-4.006-3.333c-1.01-1.302-1.717-2.66-2.121-4.074c-0.404-1.414-0.606-2.614-0.606-3.603v-23.163
			c0-0.987,0.19-2.211,0.572-3.67c0.381-1.458,1.066-2.862,2.054-4.209c0.987-1.347,2.333-2.502,4.04-3.468
			c1.706-0.965,3.86-1.447,6.464-1.447c2.559,0,4.68,0.472,6.363,1.414s3.03,2.087,4.04,3.434c1.01,1.348,1.717,2.751,2.121,4.209
			c0.404,1.459,0.606,2.683,0.606,3.67V253.001z M99.79,229.771c0-1.66-0.314-2.997-0.943-4.007
			c-0.629-1.01-1.403-1.795-2.323-2.356c-0.921-0.561-1.875-0.932-2.862-1.111c-0.988-0.179-1.818-0.27-2.492-0.27
			s-1.504,0.102-2.491,0.304c-0.988,0.202-1.931,0.584-2.828,1.145c-0.898,0.562-1.673,1.347-2.323,2.356
			c-0.651,1.01-0.977,2.347-0.977,4.007v23.163c0,1.707,0.325,3.042,0.977,4.007c0.65,0.966,1.425,1.707,2.323,2.222
			c0.897,0.517,1.84,0.842,2.828,0.977c0.987,0.135,1.818,0.202,2.491,0.202s1.503-0.078,2.492-0.235
			c0.987-0.157,1.941-0.494,2.862-1.011c0.919-0.515,1.694-1.256,2.323-2.222c0.628-0.965,0.943-2.277,0.943-3.939V229.771z"/>
		<path fill="#262626" d="M113.323,219.737c2.828-1.167,5.162-1.919,7.003-2.256c1.84-0.337,3.075-0.505,3.704-0.505
			c1.795,0,3.445,0.37,4.949,1.111c1.503,0.74,2.816,1.75,3.939,3.03c1.122,1.279,1.997,2.75,2.626,4.41
			c0.628,1.661,0.942,3.434,0.942,5.319v21.278c0,1.886-0.359,3.647-1.077,5.286c-0.719,1.639-1.684,3.053-2.896,4.242
			s-2.616,2.121-4.208,2.794c-1.594,0.674-3.266,1.011-5.017,1.011c-0.36,0-0.786-0.023-1.279-0.067
			c-0.495-0.046-1.134-0.146-1.919-0.304c-0.786-0.157-1.729-0.403-2.828-0.74c-1.101-0.337-2.414-0.818-3.939-1.448V219.737z
			 M131.571,230.848c0-1.886-0.427-3.535-1.279-4.949c-0.853-1.414-1.774-2.458-2.761-3.131c-0.495-0.359-1.077-0.617-1.75-0.774
			s-1.257-0.235-1.751-0.235c-0.942,0-1.964,0.191-3.063,0.572c-1.101,0.382-2.121,0.774-3.064,1.178v35.756
			c1.571,0.629,2.794,1.01,3.67,1.145c0.875,0.135,1.537,0.202,1.986,0.202h0.269c1.032,0,2.021-0.246,2.963-0.741
			c0.943-0.493,1.785-1.166,2.525-2.02c0.741-0.853,1.323-1.818,1.75-2.896c0.426-1.077,0.64-2.222,0.64-3.435L131.571,230.848z"/>
		<path fill="#262626" d="M165.439,217.649v4.714h-14.881v16.363h11.65v4.713h-11.65v16.497h15.016v4.781h-19.662v-47.068H165.439z"
			/>
		<path fill="#262626" d="M177.358,252.665c0,1.167,0.224,2.245,0.673,3.231c0.448,0.988,1.044,1.863,1.784,2.626
			c0.741,0.765,1.594,1.358,2.56,1.785c0.965,0.427,1.986,0.64,3.063,0.64c0.448,0,1.044-0.078,1.784-0.236
			c0.741-0.156,1.852-0.616,3.333-1.38v-12.727h4.646v15.622c-2.649,1.438-4.814,2.335-6.498,2.693s-2.84,0.539-3.468,0.539
			c-1.841,0-3.524-0.371-5.05-1.111c-1.527-0.741-2.852-1.728-3.974-2.963c-1.122-1.234-1.986-2.682-2.592-4.343
			c-0.606-1.661-0.909-3.435-0.909-5.32v-21.009c0.179-4.264,1.402-7.619,3.67-10.066c2.267-2.446,5.263-3.67,8.989-3.67
			c0.673,0.045,1.458,0.158,2.356,0.337c0.897,0.18,1.706,0.403,2.425,0.673l4.578,1.751l-1.616,4.714l-5.117-1.953
			c-1.033-0.448-1.908-0.673-2.626-0.673c-1.077,0-2.11,0.247-3.098,0.74c-0.988,0.494-1.841,1.145-2.559,1.953
			c-0.719,0.808-1.291,1.75-1.717,2.828c-0.428,1.077-0.64,2.199-0.64,3.366V252.665z"/>
		<path fill="#262626" d="M230.62,264.785h-4.578l-8.216-19.056c-0.359,0.045-0.74,0.078-1.145,0.101
			c-0.404,0.023-0.786,0.033-1.145,0.033h-7.407v18.922h-4.444v-45.048c1.257-0.493,2.56-0.942,3.906-1.347
			c1.166-0.358,2.446-0.684,3.838-0.977c1.391-0.291,2.783-0.438,4.175-0.438c1.886,0,3.681,0.303,5.387,0.909
			c1.706,0.605,3.209,1.504,4.512,2.693c1.302,1.189,2.345,2.626,3.131,4.31c0.785,1.684,1.179,3.603,1.179,5.757
			c0,1.481-0.18,2.93-0.539,4.344s-0.864,2.738-1.515,3.973c-0.651,1.235-1.438,2.323-2.357,3.266s-1.919,1.684-2.996,2.222
			L230.62,264.785z M215.065,221.758c-0.719,0-1.481,0.078-2.289,0.235s-1.549,0.326-2.222,0.505
			c-0.809,0.226-1.595,0.472-2.357,0.741v17.844h6.868c3.053,0,5.499-0.897,7.34-2.693c1.84-1.795,2.761-4.377,2.761-7.744
			c0-1.616-0.247-2.996-0.74-4.141c-0.495-1.145-1.19-2.064-2.088-2.761c-0.898-0.695-1.964-1.201-3.198-1.516
			C217.904,221.915,216.547,221.758,215.065,221.758z"/>
		<path fill="#262626" d="M238.903,264.718h-4.579l10.773-47.135h6.397l10.773,47.135h-4.512l-2.963-12.861h-12.995L238.903,264.718
			z M248.397,222.835h-0.067c-0.898,4.085-1.784,8.114-2.66,12.087c-0.875,3.973-1.762,8.002-2.659,12.087h10.571L248.397,222.835z"
			/>
		<path fill="#262626" d="M288.528,217.649v4.714h-14.881v16.43h11.649v4.646h-11.649v21.346h-4.646v-47.136H288.528z"/>
	</g>
</g>
<text transform="matrix(1 0 0 1 14.9995 323.7852)" opacity="0.5"><tspan x="0" y="0" fill="#FFED00" font-family="'Delius-Regular'" font-size="50">BIO</tspan><tspan x="93.249" y="0" fill="#E6007E" font-family="'Delius-Regular'" font-size="50">DE</tspan><tspan x="158.098" y="0" fill="#009FE3" font-family="'Delius-Regular'" font-size="50">GRAF</tspan></text>
<text transform="matrix(1 0 0 1 11.9995 326.7852)" fill="#262626" font-family="'Delius-Regular'" font-size="50">BIODEGRAF</text>
<text transform="matrix(1 0 0 1 54.9995 -138.2148)" font-family="'Delius-Regular'" font-size="50">BIODEGRAF</text>
</svg>
